<svg width="366" height="366" viewBox="0 0 366 366" fill="none" xmlns="http://www.w3.org/2000/svg">
<path d="M56.4153 326.186C57.0521 323.668 55.3832 321.15 53.5239 319.335C51.6646 317.52 49.4466 315.895 48.4658 313.486C46.8846 309.585 48.9489 304.512 46.2698 301.262C44.696 299.351 41.8851 298.722 40.487 296.68C39.755 295.611 39.5061 294.286 39.2133 293.02C37.72 286.563 34.448 280.532 29.8583 275.752C29.5728 281.505 30.8758 287.339 33.5842 292.427C34.6749 294.469 36.0071 296.467 36.3804 298.751C36.9807 302.462 34.9311 306.305 35.8607 309.951C36.9294 314.116 41.6362 316.89 41.8778 321.18C42.0827 324.81 38.9351 328.017 39.1913 331.647C39.3011 333.192 40.0258 334.626 40.831 335.944C43.6638 340.6 47.8143 343.791 54.0656 343.652L61.7296 343.879L56.4153 326.186Z" fill="#F5F5F5"/>
<path d="M63.2961 344.084C63.2961 344.084 64.0281 344.252 65.4042 344.025C66.0923 343.923 66.9341 343.732 67.893 343.381C68.8446 343.03 69.928 342.525 70.9601 341.683C71.4579 341.244 71.9483 340.702 72.2118 339.992C72.4753 339.282 72.5119 338.499 72.5559 337.701C72.5925 336.903 72.5851 336.068 72.7169 335.219C72.8413 334.377 73.1707 333.543 73.6392 332.752C74.5323 331.164 76.0255 329.649 76.494 327.489C77.0064 325.366 76.6185 323.075 76.2451 320.777C75.8791 318.478 75.5205 315.975 76.3842 313.581C77.1894 311.18 78.8584 309.006 79.6855 306.305C80.5054 303.575 80.1028 300.64 80.2638 297.748C80.337 296.291 80.6079 294.842 81.2374 293.488C81.8523 292.126 82.7014 290.845 83.3675 289.411C84.7144 286.519 84.934 283.247 85.2853 280.034C85.461 278.416 85.6294 276.784 85.8051 275.137C85.9807 273.482 86.1125 271.828 86.6249 270.232C87.0861 268.622 87.7595 267.07 88.4329 265.482C88.7623 264.684 89.1064 263.886 89.3113 263C89.4577 262.1 89.4943 261.251 89.5456 260.365C89.6188 258.608 89.5383 256.829 89.3113 255.065C89.0917 253.301 88.7623 251.544 88.5647 249.78C88.5501 249.678 88.5427 249.568 88.5281 249.473L88.4842 249.121L88.1694 249.282C86.5371 250.11 85.1389 251.347 84.0629 252.789C82.9722 254.223 82.1817 255.834 81.5521 257.473C80.2931 260.775 79.8466 264.223 79.2244 267.517C78.6168 270.811 77.8043 274.053 76.128 276.798C75.2935 278.167 74.2907 279.419 73.405 280.751C72.5266 282.076 71.7507 283.533 71.5311 285.128C71.0992 288.371 72.8999 291.211 72.5412 294.081C72.4168 295.508 71.8605 296.84 71.1651 298.063C70.477 299.293 69.6645 300.427 68.8959 301.576C68.1273 302.718 67.3953 303.882 66.8609 305.119C66.3119 306.356 66.0191 307.674 65.9386 308.962C65.7629 311.546 66.1435 313.999 65.9679 316.312C65.8288 318.632 65.0236 320.733 64.1159 322.621C63.2009 324.51 62.1761 326.223 61.327 327.877C60.8951 328.704 60.4998 329.517 60.1777 330.322C59.8337 331.135 59.6727 331.962 59.5189 332.745C59.2774 334.333 59.3067 335.812 59.4897 337.115C59.841 339.736 60.8292 341.624 61.7149 342.678C61.9199 342.964 62.1541 343.161 62.3371 343.344C62.5201 343.535 62.6958 343.666 62.8422 343.769C63.1423 343.989 63.2961 344.084 63.2961 344.084C63.3327 344.047 62.6665 343.696 61.8028 342.627C60.9537 341.566 60.0094 339.692 59.6946 337.1C59.5336 335.812 59.5189 334.348 59.7678 332.789C59.9215 332.02 60.0899 331.208 60.4339 330.417C60.756 329.627 61.1586 328.822 61.5905 328.002C62.4543 326.362 63.4864 324.656 64.416 322.753C65.3457 320.857 66.1801 318.713 66.3339 316.334C66.5242 313.969 66.1509 311.51 66.3339 308.992C66.4144 307.733 66.7072 306.474 67.2342 305.273C67.7613 304.073 68.4786 302.931 69.2472 301.796C70.0158 300.661 70.8357 299.512 71.5457 298.261C72.2557 297.016 72.8487 295.625 72.9877 294.11C73.3391 291.05 71.553 288.196 71.9922 285.18C72.2045 283.686 72.9365 282.296 73.8076 280.993C74.6713 279.682 75.6888 278.431 76.5453 277.025C78.2728 274.2 79.0926 270.898 79.7148 267.59C80.3443 264.274 80.7909 260.855 82.0279 257.627C82.6428 256.024 83.4187 254.45 84.4728 253.067C85.5049 251.676 86.8445 250.498 88.4037 249.707L88.0523 249.517C88.0669 249.612 88.0743 249.722 88.0889 249.824C88.2939 251.617 88.6233 253.367 88.8355 255.116C89.0625 256.859 89.143 258.608 89.0698 260.336C89.0259 261.192 88.9746 262.085 88.8502 262.89C88.6672 263.695 88.3305 264.493 88.0011 265.284C87.3349 266.865 86.6542 268.446 86.1784 270.086C85.6587 271.718 85.5123 273.431 85.3439 275.071C85.1682 276.718 84.9999 278.357 84.8315 279.975C84.4801 283.196 84.2605 286.417 82.9649 289.213C82.3281 290.604 81.4716 291.892 80.8421 293.298C80.1906 294.696 79.9051 296.233 79.8393 297.712C79.6855 300.669 80.0881 303.56 79.3049 306.181C78.529 308.794 76.8673 310.975 76.0329 313.45C75.1398 315.953 75.5351 318.537 75.9084 320.828C76.2891 323.134 76.677 325.374 76.1939 327.416C75.762 329.473 74.3127 330.974 73.405 332.613C72.9292 333.426 72.5925 334.304 72.468 335.183C72.3363 336.054 72.3509 336.895 72.3216 337.693C72.285 338.484 72.2484 339.26 72.0069 339.919C71.7726 340.585 71.3041 341.104 70.8283 341.536C69.8328 342.371 68.7714 342.883 67.8345 343.249C66.8975 343.608 66.063 343.813 65.3823 343.93C64.7015 344.054 64.1745 344.076 63.8231 344.091C63.4791 344.076 63.2961 344.084 63.2961 344.084Z" fill="#E0E0E0"/>
<path d="M86.9909 253.696C86.9836 253.696 86.9616 253.777 86.9177 253.931C86.8738 254.114 86.8225 254.34 86.7493 254.619C86.6029 255.226 86.4273 256.134 86.1418 257.276C85.849 258.41 85.1609 259.699 84.5753 261.287C83.9677 262.861 83.3528 264.684 82.7819 266.733C82.2109 268.776 81.7059 271.052 81.1788 273.482C80.6371 275.912 80.0955 278.518 78.7705 280.978C78.1483 282.222 77.4529 283.489 76.8966 284.872C76.3257 286.256 76.0255 287.764 75.8206 289.271C75.4692 292.309 74.9275 295.391 74.2248 298.546C72.7242 304.834 71.2968 310.822 69.9939 316.275C68.6616 321.706 67.4611 326.603 66.4437 330.732C65.4555 334.824 64.6576 338.147 64.0939 340.489C63.8304 341.617 63.6255 342.503 63.4791 343.147C63.4205 343.425 63.3693 343.659 63.3327 343.842C63.3034 343.996 63.2887 344.084 63.2961 344.084C63.3034 344.084 63.3327 344.01 63.3766 343.857C63.4278 343.674 63.4937 343.454 63.5742 343.176C63.7426 342.532 63.9841 341.653 64.2769 340.541C64.8772 338.206 65.7336 334.897 66.7804 330.82C67.8198 326.699 69.0569 321.809 70.4331 316.385C71.7507 310.931 73.1927 304.944 74.7079 298.656C75.418 295.501 75.9597 292.361 76.3037 289.337C76.5087 287.837 76.7941 286.38 77.3431 285.041C77.8775 283.694 78.5656 282.435 79.1878 281.176C80.52 278.665 81.069 275.986 81.5887 273.563C82.1011 271.125 82.5843 268.856 83.1333 266.814C83.6749 264.771 84.2605 262.949 84.8461 261.375C85.4025 259.794 86.0686 258.491 86.3394 257.32C86.5956 256.156 86.742 255.248 86.8591 254.633C86.9031 254.348 86.947 254.121 86.9763 253.931C86.9909 253.777 86.9982 253.696 86.9909 253.696Z" fill="#E0E0E0"/>
<path d="M64.6502 344.098C69.6351 341.097 71.0186 332.057 68.9031 326.64C66.7877 321.216 63.1057 316.275 62.5055 310.485C62.0443 306.034 63.479 301.452 62.4176 297.104C60.9829 291.241 55.2221 286.717 55.2513 280.678C55.266 277.289 57.1765 274.09 57.0081 270.708C56.7959 266.558 53.5897 263.278 51.5987 259.633C48.5462 254.055 48.312 247.431 47.2433 241.165C46.1745 234.891 43.7443 228.186 38.1665 225.134C37.3759 230.47 35.9924 234.123 36.4756 241.34C36.6512 243.932 39.689 248.88 40.1282 254.56C40.3917 257.957 40.5821 261.353 40.809 264.757C41.0286 268.066 41.2628 271.433 42.4633 274.515C43.3856 276.879 44.8569 279.024 45.545 281.469C46.8407 286.065 45.201 291.065 46.2551 295.728C47.1481 299.673 49.9004 303.063 50.486 307.067C51.3059 312.696 47.6898 318.566 49.5857 323.932C50.5299 326.596 52.7333 328.719 53.3701 331.471C53.8679 333.602 53.3481 335.871 53.802 338.016C54.5267 341.471 61.1366 344.113 64.6575 343.879" fill="#E0E0E0"/>
<path d="M39.572 230.412C39.5646 230.412 39.572 230.514 39.5939 230.712C39.6232 230.939 39.6598 231.224 39.711 231.59C39.8282 232.359 39.9672 233.486 40.2308 234.95C40.5162 236.421 41.2848 238.068 41.8997 240.059C42.5512 242.043 43.1954 244.334 43.7736 246.904C44.3592 249.466 44.8497 252.306 45.3694 255.366C45.9038 258.396 46.4528 261.749 47.99 264.925C48.7 266.521 49.4979 268.117 50.0981 269.823C50.713 271.521 51.0058 273.343 51.1815 275.225C51.4596 279.002 51.9867 282.918 52.7187 286.871C54.2998 294.762 55.8004 302.272 57.1692 309.109C58.6113 315.917 59.9069 322.058 60.9976 327.219C62.1029 332.35 62.996 336.508 63.6182 339.421C63.9329 340.834 64.1818 341.946 64.3575 342.737C64.4453 343.096 64.5112 343.374 64.5624 343.593C64.6137 343.784 64.643 343.886 64.6503 343.886C64.6576 343.886 64.643 343.784 64.6137 343.586C64.5771 343.367 64.5258 343.081 64.46 342.715C64.3062 341.925 64.0866 340.805 63.8158 339.384C63.2229 336.464 62.3811 332.291 61.349 327.153C60.2876 321.978 59.0285 315.836 57.6231 309.021C56.2689 302.184 54.7756 294.674 53.2164 286.79C52.4844 282.837 51.9647 278.965 51.6792 275.181C51.4962 273.292 51.1961 271.411 50.5593 269.669C49.9371 267.927 49.1319 266.331 48.4218 264.742C46.8993 261.617 46.3503 258.345 45.794 255.3C45.2596 252.247 44.7399 249.4 44.1323 246.83C43.5321 244.261 42.8586 241.963 42.1779 239.979C41.5337 237.981 40.7432 236.348 40.4357 234.913C40.1429 233.479 39.9746 232.337 39.8208 231.583C39.755 231.224 39.6964 230.939 39.6525 230.719C39.6012 230.507 39.5793 230.412 39.572 230.412Z" fill="#EBEBEB"/>
<path d="M153.947 40.4283C158.222 35.4434 169.334 38.5764 176.946 42.6536C176.946 42.6536 182.188 45.1278 184.135 46.4088C184.157 46.4161 184.179 46.4161 184.201 46.4234L202.003 44.1981C203.452 44.0151 204.916 44.2786 206.212 44.9374L207.668 45.6841C208.408 46.0574 208.371 47.1261 207.61 47.4482L194.5 53.048C194.492 53.1212 194.492 53.1358 194.485 53.209C201.454 57.7914 207.427 61.7076 207.427 61.7076C207.493 61.7515 207.559 61.7954 207.617 61.832C210.055 63.3912 212.997 63.9768 215.86 63.4717L222.792 62.2346C223.143 62.1687 223.509 62.1834 223.838 62.3224C225.068 62.8275 225.31 64.4452 224.299 65.287L216.269 71.9995C215.01 73.0536 213.261 73.2805 211.775 72.5997L208.02 70.8722L189.002 61.8174L191.184 72.6436C191.264 73.0902 190.913 73.4928 190.459 73.4781L189.559 73.4488C188.329 73.4049 187.216 72.7315 186.601 71.6628L178.937 57.0228L156.502 46.3356C153.522 44.9667 152.454 42.3974 153.947 40.4283Z" fill="#E0E0E0"/>
<path d="M29.2654 88.3597L85.7245 87.086C85.7245 87.086 80.5273 78.1117 66.0264 79.766C52.177 81.3398 51.3425 75.6229 44.2714 75.0812C37.2003 74.5395 31.4321 80.0734 29.2654 88.3597Z" fill="#F5F5F5"/>
<path d="M293.225 118.891H346.412C346.412 118.891 341.705 110.334 328.017 111.579C314.943 112.772 314.277 107.37 307.63 106.704C300.977 106.038 295.435 111.132 293.225 118.891Z" fill="#F5F5F5"/>
<path d="M61.4221 60.346H101.997C101.997 60.346 98.4101 53.8166 87.9644 54.7682C77.9873 55.6759 77.4822 51.5547 72.4094 51.0496C67.3367 50.5372 63.113 54.4242 61.4221 60.346Z" fill="#F5F5F5"/>
<path d="M293.276 145.727H319.818C319.818 145.727 317.468 141.459 310.639 142.074C304.117 142.667 303.78 139.973 300.464 139.644C297.141 139.307 294.381 141.854 293.276 145.727Z" fill="#F5F5F5"/>
<path d="M280.005 72.2631H306.547C306.547 72.2631 304.197 67.9956 297.368 68.6104C290.846 69.2034 290.509 66.5096 287.193 66.1802C283.877 65.8435 281.11 68.3908 280.005 72.2631Z" fill="#FAFAFA"/>
<path d="M347.283 344.142C347.283 344.245 273.395 344.333 182.275 344.333C91.1193 344.333 17.2458 344.245 17.2458 344.142C17.2458 344.04 91.1193 343.952 182.275 343.952C273.402 343.952 347.283 344.04 347.283 344.142Z" fill="#263238"/>
<path d="M296.716 215.062C296.606 214.008 295.713 213.202 294.652 213.202L279.024 213.217C277.721 213.217 276.747 214.41 276.996 215.684C277.194 216.672 278.065 217.375 279.075 217.346H294.652C295.882 217.353 296.841 216.284 296.716 215.062Z" fill="#263238"/>
<path d="M335.739 344.728C338.492 344.728 340.724 342.496 340.724 339.743C340.724 336.99 338.492 334.758 335.739 334.758C332.986 334.758 330.754 336.99 330.754 339.743C330.754 342.496 332.986 344.728 335.739 344.728Z" fill="#263238"/>
<path d="M334.7 339.773L331.662 333.492L333.258 332.474L336.2 339.033L334.7 339.773Z" fill="#455A64"/>
<path d="M306.547 262.451L287.669 213.195L284.082 214.996L302.374 263.806L306.547 262.451Z" fill="#263238"/>
<path d="M322.277 338.565L350.145 327.497C351.184 327.087 351.689 325.908 351.279 324.869L323.544 255.051C321.363 249.554 315.141 246.874 309.643 249.056L297.909 253.719C292.412 255.9 289.733 262.122 291.914 267.619L319.65 337.437C320.067 338.47 321.238 338.982 322.277 338.565Z" fill="url(#paint0_linear_136:766)"/>
<path d="M319.591 337.782C319.591 337.782 319.547 337.635 319.445 337.357C319.335 337.064 319.181 336.647 318.984 336.12C318.559 335.015 317.951 333.419 317.168 331.369C315.565 327.233 313.259 321.29 310.412 313.94C307.542 306.584 304.124 297.829 300.339 288.108C298.436 283.248 296.445 278.146 294.374 272.86C293.854 271.536 293.334 270.203 292.807 268.864C292.251 267.553 292.068 266.111 292.222 264.691C292.558 261.844 294.542 259.216 297.294 258.155C300.039 257.064 303.282 257.635 305.463 259.494C306.54 260.431 307.389 261.61 307.872 262.949C308.399 264.296 308.926 265.628 309.438 266.946C311.517 272.231 313.516 277.333 315.426 282.186C319.247 291.892 322.695 300.633 325.586 307.982C328.492 315.309 330.842 321.238 332.474 325.359C333.294 327.394 333.931 328.983 334.37 330.074C334.582 330.601 334.751 331.003 334.875 331.296C334.992 331.574 335.058 331.706 335.058 331.706C335.058 331.706 335.014 331.56 334.912 331.281C334.802 330.989 334.648 330.571 334.451 330.044C334.026 328.939 333.419 327.343 332.635 325.301C331.032 321.172 328.726 315.221 325.879 307.872C323.01 300.515 319.591 291.761 315.799 282.04C313.896 277.179 311.905 272.077 309.834 266.792C309.314 265.467 308.794 264.135 308.267 262.795C307.769 261.412 306.876 260.146 305.742 259.165C303.443 257.203 300.025 256.595 297.133 257.752C294.235 258.872 292.141 261.646 291.79 264.64C291.621 266.133 291.826 267.671 292.405 269.017C292.932 270.364 293.459 271.697 293.971 273.014C296.05 278.299 298.048 283.394 299.959 288.254C303.78 297.961 307.228 306.701 310.119 314.05C313.025 321.377 315.375 327.307 317.007 331.428C317.827 333.463 318.464 335.051 318.903 336.142C319.115 336.669 319.284 337.071 319.408 337.364C319.518 337.65 319.591 337.782 319.591 337.782Z" fill="#263238"/>
<path d="M317.79 288.167C317.849 288.357 321.494 286.915 325.938 284.96C330.381 282.999 333.931 281.264 333.872 281.074C333.814 280.883 330.169 282.325 325.725 284.28C321.282 286.241 317.732 287.976 317.79 288.167Z" fill="#263238"/>
<path d="M293.122 213.195L289.857 206.753C289.499 206.029 288.884 205.465 288.144 205.158L283.013 203.028L269.208 184.296L267.919 198.636L276.725 207.712C276.725 207.712 282.237 219.322 286.739 218.729C286.739 218.729 286.585 217.023 285.839 215.728C284.375 213.202 285.934 213.202 286.139 213.21L289.879 213.217L293.122 213.195Z" fill="#FFBE9D"/>
<path d="M270.584 203.291C271.001 203.913 274.419 208.539 274.419 208.539L284.089 201.505L280.576 198.072L270.584 203.291Z" fill="url(#paint1_linear_136:766)"/>
<path d="M285.831 215.728C285.831 215.728 288.342 217.155 288.657 218.378V219.095L285.641 218.656L285.831 215.728Z" fill="#FFBE9D"/>
<path d="M289.206 217.104C288.796 216.716 288.364 216.313 288.196 215.772C288.027 215.23 288.232 214.535 288.767 214.352C289.286 214.176 289.821 214.557 290.231 214.923C290.75 215.391 291.241 215.881 291.702 216.401C292.083 216.833 292.478 217.375 292.339 217.931C292.229 218.378 291.775 218.692 291.307 218.722C290.845 218.751 290.392 218.531 290.055 218.217C289.718 217.902 289.484 217.485 289.286 217.067" fill="#FFBE9D"/>
<path d="M291.76 216.884C291.351 216.496 290.919 216.094 290.75 215.552C290.582 215.01 290.787 214.315 291.321 214.132C291.841 213.956 292.375 214.337 292.785 214.703C293.305 215.172 293.795 215.662 294.257 216.182C294.637 216.614 295.033 217.155 294.893 217.712C294.784 218.158 294.33 218.473 293.861 218.502C293.4 218.531 292.946 218.312 292.61 217.997C292.273 217.682 292.039 217.265 291.841 216.848" fill="#FFBE9D"/>
<path d="M284.082 205.89C284.075 205.802 284.733 205.838 285.48 206.49C285.839 206.856 286.066 207.361 286.358 207.91C286.629 208.466 286.907 209.147 286.856 209.916C286.798 210.699 286.373 211.306 286.066 211.819C285.743 212.317 285.575 212.836 285.465 213.268C285.238 214.154 285.414 214.71 285.363 214.725C285.319 214.754 285.033 214.169 285.202 213.21C285.282 212.741 285.436 212.178 285.765 211.636C286.066 211.102 286.432 210.538 286.476 209.879C286.527 209.22 286.285 208.591 286.044 208.049C285.78 207.507 285.56 206.98 285.29 206.658C284.997 206.351 284.66 206.153 284.448 206.036C284.221 205.919 284.089 205.912 284.082 205.89Z" fill="#EB996E"/>
<path d="M179.903 139.819L169.647 172.627L199.835 204.155L227.497 196.966L179.903 139.819Z" fill="#F5F5F5"/>
<path d="M179.904 139.819C179.904 139.819 179.984 139.907 180.138 140.09C180.299 140.288 180.533 140.558 180.833 140.91C181.456 141.649 182.363 142.725 183.527 144.116C185.884 146.927 189.303 151.004 193.563 156.084C202.12 166.317 214.059 180.599 227.645 196.849L227.835 197.076L227.55 197.149C222.528 198.452 217.294 199.814 211.958 201.205C207.851 202.273 203.818 203.32 199.887 204.338L199.777 204.367L199.704 204.286C188.329 192.377 177.964 181.536 169.546 172.723L169.487 172.657L169.517 172.576C172.701 162.526 175.299 154.32 177.107 148.61C178.008 145.792 178.703 143.589 179.186 142.074C179.421 141.342 179.604 140.778 179.728 140.383C179.845 140.009 179.904 139.819 179.904 139.819C179.552 140.961 175.936 152.702 169.787 172.664L169.751 172.518C178.183 181.309 188.563 192.135 199.96 204.023L199.777 203.972C203.701 202.954 207.742 201.9 211.848 200.831C217.192 199.44 222.418 198.086 227.447 196.783L227.352 197.083C213.876 180.833 202.025 166.552 193.541 156.318C189.303 151.194 185.899 147.081 183.549 144.24C182.385 142.828 181.477 141.73 180.855 140.976C180.555 140.61 180.321 140.324 180.153 140.119C179.992 139.929 179.904 139.819 179.904 139.819Z" fill="#263238"/>
<path d="M180.848 161.457C182.283 158.983 186.03 158.243 188.3 159.993C190.188 161.45 191.052 164.217 193.321 164.949C194.961 165.476 196.769 164.707 198.467 165.014C200.451 165.373 201.929 167.174 202.508 169.114C203.086 171.046 202.925 173.118 202.764 175.131L192.941 175.27L180.848 161.457Z" fill="#E0E0E0"/>
<path d="M162.702 142.813L226.305 208.364L200.385 205.736L164.129 167.459L162.702 142.813Z" fill="#F5F5F5"/>
<path d="M162.702 142.813C162.76 143.772 163.295 152.205 164.253 167.445L164.217 167.364C173.484 177.129 186.162 190.481 200.517 205.604L200.4 205.545C206.805 206.197 213.466 206.863 220.281 207.558C222.345 207.771 224.402 207.976 226.32 208.173L226.166 208.495C190.796 171.888 164.1 144.27 162.702 142.813C164.107 144.255 190.92 171.771 226.444 208.232L226.81 208.605L226.291 208.554C224.373 208.364 222.323 208.151 220.252 207.939C213.429 207.244 206.775 206.57 200.37 205.919L200.305 205.911L200.253 205.86C185.928 190.7 173.286 177.327 164.041 167.54L164.012 167.503V167.459C163.192 152.212 162.746 143.772 162.702 142.813Z" fill="#263238"/>
<path d="M187.59 168.865C185.621 171.127 185.913 174.735 187.59 177.217C189.273 179.698 192.033 181.221 194.829 182.297C197.091 183.168 199.88 183.717 201.747 182.18" fill="#E0E0E0"/>
<path d="M184.281 165.3C184.398 165.849 183.71 166.252 183.154 166.2C182.597 166.149 182.085 165.842 181.521 165.812C179.991 165.725 179.157 167.54 177.913 168.426C176.456 169.458 174.165 169.019 173.198 167.511C172.364 166.215 172.386 164.297 171.068 163.492C170.336 163.045 169.414 163.111 168.58 163.265C167.738 163.426 166.889 163.668 166.047 163.529C165.205 163.397 164.363 162.738 164.363 161.889L163.909 161.179L162.819 143.091L184.281 165.3Z" fill="#E0E0E0"/>
<path d="M215.281 207.039C216.716 207.287 218.092 206.555 218.312 205.113C218.531 203.671 217.397 202.163 215.955 201.973C214.659 201.805 213.319 202.551 212.068 202.163C210.648 201.724 210.062 200.07 209.703 198.635C209.345 197.193 208.847 195.546 207.471 194.99C205.187 194.068 202.786 196.988 200.414 196.344C198.65 195.868 197.969 193.745 196.586 192.552C195.481 191.593 193.856 191.271 192.465 191.74C191.074 192.208 190.261 192.991 189.961 194.426L200.458 205.501L215.281 207.039Z" fill="#E0E0E0"/>
<path d="M197.889 317.82L195.276 332.884C195.276 332.884 179.084 335.285 178.33 338.023L207.361 344.142L212.397 320.835L197.889 317.82Z" fill="url(#paint2_linear_136:766)"/>
<g opacity="0.6">
<path opacity="0.6" d="M204.521 333.521C205.048 333.792 205.304 334.509 205.055 335.044C204.806 335.585 204.082 335.849 203.547 335.585C203.013 335.322 202.683 334.473 202.991 333.967C203.298 333.455 204.169 333.192 204.623 333.58" fill="white"/>
</g>
<path opacity="0.6" d="M207.361 344.142L207.866 341.814L179.787 336.793C179.787 336.793 178.374 337.086 178.33 338.023L207.361 344.142Z" fill="white"/>
<path d="M194.836 332.635C194.814 332.782 195.51 332.994 196.11 333.594C196.725 334.18 196.959 334.868 197.098 334.846C197.237 334.846 197.201 333.953 196.461 333.235C195.729 332.511 194.836 332.504 194.836 332.635Z" fill="#263238"/>
<path d="M191.528 333.257C191.469 333.389 192.033 333.755 192.384 334.458C192.758 335.146 192.743 335.819 192.889 335.849C193.021 335.9 193.292 335.087 192.831 334.224C192.384 333.36 191.557 333.118 191.528 333.257Z" fill="#263238"/>
<path d="M189.032 336.537C189.156 336.595 189.5 335.929 189.303 335.073C189.105 334.216 188.505 333.77 188.417 333.88C188.314 333.982 188.658 334.487 188.812 335.19C188.98 335.885 188.893 336.493 189.032 336.537Z" fill="#263238"/>
<path d="M195.817 329.268C195.847 329.407 196.542 329.349 197.333 329.576C198.13 329.781 198.694 330.183 198.797 330.081C198.899 329.993 198.401 329.341 197.472 329.092C196.527 328.836 195.766 329.144 195.817 329.268Z" fill="#263238"/>
<path opacity="0.3" d="M197.376 320.806L196.908 323.485L211.204 326.362L211.731 323.968L197.376 320.806Z" fill="black"/>
<path d="M196.396 326.238C196.381 326.296 196.923 326.501 197.852 326.538C198.313 326.552 198.87 326.516 199.47 326.391C199.77 326.325 200.085 326.238 200.4 326.12C200.553 326.062 200.729 326.011 200.912 325.872C201.102 325.754 201.271 325.403 201.139 325.132C201.036 324.876 200.795 324.73 200.583 324.678C200.37 324.627 200.187 324.634 200.019 324.642C199.682 324.649 199.353 324.693 199.053 324.759C198.445 324.891 197.925 325.118 197.53 325.359C196.725 325.842 196.381 326.325 196.425 326.362C196.476 326.421 196.901 326.047 197.691 325.674C198.086 325.491 198.577 325.315 199.141 325.22C199.419 325.169 199.719 325.14 200.026 325.14C200.348 325.125 200.612 325.176 200.663 325.33C200.678 325.388 200.678 325.41 200.597 325.484C200.517 325.549 200.37 325.608 200.224 325.667C199.931 325.776 199.646 325.872 199.36 325.945C198.804 326.091 198.277 326.157 197.838 326.186C196.967 326.238 196.41 326.164 196.396 326.238Z" fill="#263238"/>
<path d="M196.542 326.479C196.586 326.509 196.974 326.062 197.223 325.154C197.34 324.708 197.413 324.144 197.362 323.522C197.333 323.214 197.274 322.885 197.179 322.563C197.069 322.241 196.945 321.809 196.403 321.633C196.117 321.56 195.832 321.736 195.707 321.912C195.568 322.087 195.517 322.256 195.444 322.417C195.32 322.746 195.254 323.075 195.239 323.397C195.202 324.034 195.341 324.605 195.546 325.03C195.956 325.901 196.513 326.194 196.535 326.15C196.601 326.091 196.161 325.711 195.876 324.898C195.737 324.496 195.649 323.983 195.7 323.434C195.729 323.156 195.795 322.878 195.905 322.6C196.015 322.299 196.183 322.073 196.293 322.131C196.439 322.16 196.637 322.446 196.703 322.717C196.798 323.01 196.857 323.302 196.901 323.58C196.974 324.144 196.945 324.664 196.879 325.088C196.732 325.945 196.469 326.443 196.542 326.479Z" fill="#263238"/>
<path d="M293.283 318.735L287.003 310.536L286.673 310.112L275.979 318.069L285.883 328.946L285.524 339.955C280.005 341.383 279.177 344.135 279.177 344.135L290.641 344.12L301.057 324.056L293.283 318.735Z" fill="url(#paint3_linear_136:766)"/>
<path opacity="0.6" d="M301.064 324.071L290.648 344.128L279.185 344.142L280.473 342.415L289.799 341.895L299.41 322.936L301.064 324.071Z" fill="white"/>
<path d="M285.597 334.912C285.685 335.029 286.344 334.656 287.229 334.678C288.115 334.678 288.767 335.073 288.854 334.956C288.964 334.868 288.313 334.18 287.237 334.172C286.161 334.158 285.495 334.824 285.597 334.912Z" fill="#263238"/>
<path d="M285.78 332.182C285.897 332.262 286.402 331.589 287.317 331.406C288.232 331.215 288.964 331.647 289.037 331.523C289.074 331.471 288.942 331.281 288.62 331.105C288.306 330.93 287.778 330.798 287.215 330.908C286.651 331.025 286.219 331.347 285.992 331.633C285.773 331.925 285.722 332.152 285.78 332.182Z" fill="#263238"/>
<path d="M285.707 328.675C285.831 328.741 286.219 328.075 287.024 327.797C287.822 327.511 288.54 327.782 288.598 327.65C288.628 327.592 288.481 327.431 288.166 327.314C287.852 327.197 287.361 327.145 286.856 327.321C286.351 327.497 286 327.848 285.831 328.141C285.656 328.434 285.641 328.646 285.707 328.675Z" fill="#263238"/>
<path d="M282.633 325.959C282.772 326.011 283.094 325.352 283.804 324.891C284.499 324.408 285.231 324.364 285.238 324.217C285.275 324.086 284.389 323.888 283.526 324.473C282.655 325.044 282.493 325.945 282.633 325.959Z" fill="#263238"/>
<path d="M281.139 323.602C281.198 323.639 281.578 323.178 282.142 322.402C282.464 321.948 282.779 321.494 283.108 321.026C283.277 320.755 283.504 320.521 283.643 320.096C283.701 319.884 283.701 319.628 283.569 319.401C283.452 319.159 283.13 319.006 282.874 319.042C282.376 319.115 282.098 319.372 281.805 319.598C281.527 319.84 281.293 320.111 281.11 320.396C280.744 320.96 280.568 321.553 280.51 322.051C280.4 323.068 280.729 323.639 280.773 323.617C280.861 323.595 280.671 323.01 280.861 322.109C280.956 321.663 281.147 321.143 281.491 320.66C281.666 320.418 281.871 320.184 282.12 319.979C282.362 319.781 282.676 319.569 282.911 319.547C283.02 319.54 283.079 319.569 283.13 319.65C283.182 319.738 283.196 319.855 283.16 319.972C283.101 320.213 282.874 320.499 282.72 320.77C282.42 321.26 282.127 321.736 281.842 322.212C281.352 323.031 281.081 323.566 281.139 323.602Z" fill="#263238"/>
<path d="M280.729 323.946C280.781 323.939 280.737 323.339 280.114 322.651C279.507 321.999 278.182 321.304 276.718 322.036C276.615 322.124 276.528 322.292 276.542 322.446C276.55 322.607 276.615 322.724 276.681 322.812C276.82 322.988 276.967 323.075 277.091 323.171C277.355 323.354 277.633 323.507 277.904 323.632C278.445 323.881 278.972 324.005 279.412 324.049C280.305 324.144 280.839 323.968 280.832 323.917C280.824 323.837 280.29 323.873 279.47 323.698C279.068 323.61 278.592 323.456 278.109 323.207C277.867 323.083 277.626 322.936 277.384 322.761C277.267 322.665 277.142 322.585 277.084 322.504C277.025 322.402 277.04 322.431 277.062 322.402C277.099 322.358 277.252 322.314 277.391 322.278C277.53 322.241 277.677 322.219 277.816 322.212C278.101 322.19 278.372 322.212 278.628 322.27C279.141 322.38 279.558 322.629 279.866 322.9C280.48 323.449 280.649 323.976 280.729 323.946Z" fill="#263238"/>
<path opacity="0.6" d="M293.276 325.088C294.028 325.088 294.637 324.479 294.637 323.727C294.637 322.975 294.028 322.365 293.276 322.365C292.524 322.365 291.914 322.975 291.914 323.727C291.914 324.479 292.524 325.088 293.276 325.088Z" fill="white"/>
<path opacity="0.3" d="M276.981 319.159L279.185 321.582L288.445 312.41L287.156 310.734L276.981 319.159Z" fill="black"/>
<path d="M248.477 128.254C254.546 126.131 261.236 125.831 267.473 127.39C270.262 128.085 273.095 129.249 274.888 131.496C277.004 134.161 277.267 137.792 277.596 141.181C278.255 148.069 279.529 154.898 281.388 161.567C282.94 167.115 284.902 172.576 285.744 178.278C286.578 183.981 286.197 190.078 283.291 195.056C278.812 202.727 269.288 206.116 260.409 206.27C255.732 206.351 250.952 205.663 246.809 203.503C242.665 201.336 239.218 197.552 238.208 192.984" fill="url(#paint4_linear_136:766)"/>
<g opacity="0.5">
<g opacity="0.5">
<path opacity="0.5" d="M248.477 128.254C254.546 126.131 261.236 125.831 267.473 127.39C270.262 128.085 273.095 129.249 274.888 131.496C277.004 134.161 277.267 137.792 277.596 141.181C278.255 148.069 279.529 154.898 281.388 161.567C282.94 167.115 284.902 172.576 285.744 178.278C286.578 183.981 286.197 190.078 283.291 195.056C278.812 202.727 269.288 206.116 260.409 206.27C255.732 206.351 250.952 205.663 246.809 203.503C242.665 201.336 239.218 197.552 238.208 192.984" fill="black"/>
</g>
</g>
<path d="M260.687 135.281C260.629 135.347 261.917 136.152 263.227 138.128C263.893 139.109 264.545 140.353 265.211 141.781C265.884 143.201 266.58 144.804 267.575 146.363C268.571 147.915 269.83 149.233 271.243 150.038C272.648 150.865 274.2 151.063 275.4 150.85C276.616 150.653 277.509 150.118 277.999 149.657C278.255 149.43 278.416 149.218 278.511 149.072C278.607 148.925 278.65 148.837 278.643 148.83C278.607 148.801 278.394 149.108 277.882 149.518C277.377 149.921 276.513 150.382 275.356 150.521C274.207 150.675 272.787 150.462 271.462 149.665C270.137 148.889 268.937 147.622 267.971 146.114C267.004 144.599 266.302 143.011 265.606 141.598C264.918 140.178 264.223 138.919 263.505 137.945C262.795 136.964 262.093 136.276 261.566 135.852C261.031 135.427 260.702 135.259 260.687 135.281Z" fill="#E0E0E0"/>
<path d="M273.549 203.847C273.563 203.847 273.57 203.65 273.57 203.276C273.563 202.852 273.556 202.31 273.541 201.637C273.512 200.209 273.431 198.152 273.322 195.605C273.102 190.518 272.699 183.49 272.092 175.739C271.484 167.987 270.782 160.981 270.203 155.923C269.918 153.391 269.669 151.348 269.479 149.936C269.383 149.269 269.31 148.735 269.252 148.31C269.193 147.937 269.157 147.747 269.142 147.747C269.127 147.747 269.135 147.944 269.157 148.318C269.193 148.742 269.237 149.284 269.296 149.95C269.435 151.429 269.632 153.464 269.874 155.953C270.364 161.018 271.016 168.023 271.623 175.768C272.231 183.512 272.685 190.532 272.992 195.612C273.146 198.108 273.27 200.151 273.358 201.629C273.409 202.303 273.446 202.844 273.475 203.269C273.512 203.65 273.534 203.847 273.549 203.847Z" fill="#E0E0E0"/>
<path d="M271.726 172.723C271.733 172.847 274.537 172.818 277.955 172.386C281.381 171.961 284.104 171.31 284.082 171.193C284.053 171.061 281.308 171.5 277.897 171.917C274.493 172.342 271.718 172.591 271.726 172.723Z" fill="#E0E0E0"/>
<path d="M273.988 172.657C273.929 172.642 273.746 173.147 273.607 173.989C273.534 174.413 273.475 174.918 273.453 175.489C273.446 175.775 273.453 176.112 273.607 176.448C273.761 176.792 274.119 177.078 274.559 177.085C274.778 177.092 275.02 176.983 275.159 176.807C275.305 176.631 275.356 176.426 275.371 176.251C275.4 175.885 275.305 175.585 275.239 175.314C275.1 174.757 274.917 174.274 274.742 173.886C274.383 173.103 274.046 172.686 273.995 172.715C273.936 172.752 274.163 173.22 274.427 174.011C274.559 174.406 274.705 174.882 274.815 175.416C274.866 175.687 274.932 175.965 274.91 176.214C274.888 176.463 274.756 176.617 274.559 176.617C274.061 176.602 273.863 176.024 273.885 175.497C273.885 174.948 273.907 174.45 273.929 174.033C273.995 173.191 274.054 172.671 273.988 172.657Z" fill="#E0E0E0"/>
<path d="M242.438 130.911L271.843 127.478C275.693 127.031 278.453 123.539 278.006 119.689L277.369 114.236C276.923 110.385 273.431 107.626 269.581 108.072L240.177 111.505C236.326 111.952 233.567 115.444 234.013 119.294L234.65 124.747C235.104 128.605 238.588 131.365 242.438 130.911Z" fill="#455A64"/>
<path d="M269.09 108.533C269.098 108.519 269.003 108.475 268.812 108.409C268.622 108.35 268.329 108.292 267.949 108.277C267.195 108.255 266.038 108.49 264.94 109.324C263.871 110.129 262.627 111.278 261.91 112.962C261.163 114.616 260.921 116.644 261.075 118.694C261.192 120.773 261.946 122.705 263.051 124.14C264.157 125.582 265.599 126.489 266.894 126.907C268.19 127.339 269.325 127.353 270.071 127.258C270.445 127.214 270.737 127.141 270.92 127.09C271.111 127.031 271.206 126.995 271.206 126.98C271.199 126.936 270.796 127.038 270.057 127.082C269.325 127.126 268.241 127.053 267.012 126.599C265.782 126.16 264.435 125.274 263.403 123.884C262.363 122.507 261.668 120.67 261.551 118.672C261.397 116.666 261.624 114.734 262.312 113.145C262.964 111.542 264.128 110.415 265.145 109.602C266.17 108.775 267.238 108.512 267.956 108.475C268.681 108.438 269.083 108.577 269.09 108.533Z" fill="#263238"/>
<path d="M252.284 110.019L256.815 109.573C255.607 109.909 254.59 110.766 253.909 111.813C253.228 112.859 252.855 114.082 252.664 115.319C251.852 120.531 254.626 126.145 259.084 128.963L255.439 129.447C255.439 129.454 244.971 120.099 252.284 110.019Z" fill="#263238"/>
<path d="M247.145 119.623C249.473 120.267 252.093 119.748 253.997 118.262C255.9 116.776 257.049 114.367 256.991 111.952C256.939 109.697 255.922 107.399 256.617 105.261C257.1 103.79 258.33 102.641 258.747 101.155C259.362 98.9296 258.015 96.675 256.734 94.7572C255.907 93.5274 255.065 92.2757 253.916 91.3388C252.767 90.4018 251.244 89.8089 249.795 90.1236" fill="#263238"/>
<path d="M226.356 90.3069C226.481 92.0051 225.361 93.5277 224.226 94.8014C223.092 96.075 221.833 97.4073 221.591 99.0982C221.159 102.092 224.087 104.866 223.48 107.831C223.158 109.419 221.855 110.693 221.628 112.296C221.401 113.848 222.235 115.363 223.267 116.549C224.299 117.728 225.551 118.716 226.466 119.989C227.425 121.336 227.952 122.925 228.64 124.425C229.328 125.926 230.258 127.412 231.707 128.203C233.889 129.388 236.948 128.832 238.617 130.662C240.235 132.433 242.219 132.712 244.21 134.051" fill="#263238"/>
<path d="M252.511 92.9054C252.555 91.3609 251.127 90.1677 249.693 89.6041C248.258 89.0405 246.662 88.8282 245.381 87.9644C244.246 87.2031 243.485 86.01 242.526 85.0364C240.169 82.6501 236.495 81.6619 233.259 82.5403C230.024 83.426 227.359 86.1417 226.547 89.3918C225.998 91.5878 226.371 94.1864 228.106 95.6504C230.119 97.3487 233.098 96.968 235.675 96.441C238.251 95.9139 241.165 95.3942 243.317 96.9095C244.612 97.8245 245.359 99.3031 246.15 100.679C246.94 102.055 247.936 103.454 249.436 103.973C250.937 104.493 252.972 103.6 253.031 102.011" fill="#263238"/>
<path d="M246.428 93.2276C247.76 93.374 248.763 94.5086 248.734 95.8481L247.196 130.721C247.131 134.842 241.114 137.155 236.7 137.052C232.249 136.95 232.103 134.769 232.044 130.845C231.949 124.301 231.956 121.841 231.956 121.878C231.956 121.878 226.334 120.934 225.185 113.584C224.614 109.932 224.812 103.944 225.127 99.0543C225.412 94.6477 228.347 89.2528 232.732 89.7286L246.428 93.2276Z" fill="#FFBE9D"/>
<path d="M226.517 103.256C226.495 103.754 226.905 104.178 227.425 104.208C227.945 104.237 228.377 103.856 228.399 103.358C228.421 102.861 228.011 102.436 227.491 102.407C226.971 102.378 226.532 102.758 226.517 103.256Z" fill="#263238"/>
<path d="M226.415 102.173C226.532 102.297 227.25 101.77 228.26 101.777C229.27 101.77 230.016 102.29 230.126 102.165C230.178 102.114 230.06 101.887 229.738 101.653C229.424 101.419 228.875 101.184 228.245 101.192C227.616 101.192 227.081 101.426 226.774 101.66C226.466 101.902 226.356 102.121 226.415 102.173Z" fill="#263238"/>
<path d="M236.604 103.512C236.582 104.01 236.992 104.434 237.512 104.464C238.032 104.493 238.464 104.112 238.486 103.615C238.508 103.117 238.098 102.692 237.578 102.663C237.058 102.641 236.619 103.014 236.604 103.512Z" fill="#263238"/>
<path d="M236.377 102.385C236.495 102.509 237.212 101.982 238.222 101.99C239.232 101.982 239.979 102.502 240.089 102.378C240.14 102.326 240.023 102.099 239.701 101.865C239.386 101.631 238.837 101.397 238.207 101.404C237.578 101.404 237.044 101.638 236.736 101.872C236.421 102.107 236.319 102.334 236.377 102.385Z" fill="#263238"/>
<path d="M232.681 109.895C232.688 109.837 232.059 109.727 231.034 109.595C230.778 109.566 230.529 109.515 230.485 109.339C230.426 109.149 230.536 108.87 230.661 108.57C230.902 107.948 231.158 107.289 231.429 106.601C232.498 103.798 233.274 101.492 233.157 101.455C233.047 101.411 232.088 103.651 231.019 106.455C230.763 107.143 230.514 107.802 230.28 108.439C230.185 108.731 230.009 109.068 230.141 109.456C230.207 109.646 230.397 109.793 230.565 109.837C230.734 109.888 230.88 109.888 231.005 109.895C232.037 109.946 232.674 109.946 232.681 109.895Z" fill="#263238"/>
<path d="M231.956 121.878C231.956 121.878 236.897 122.208 241.794 119.28C241.794 119.28 239.401 124.316 232.051 123.613L231.956 121.878Z" fill="#EB996E"/>
<path d="M233.105 112.333C233.471 111.85 234.108 111.586 234.745 111.659C235.184 111.711 235.631 111.923 235.894 112.282C236.158 112.64 236.216 113.145 235.975 113.489C235.704 113.87 235.126 113.958 234.643 113.819C234.159 113.68 233.742 113.358 233.347 113.043C233.237 112.955 233.127 112.86 233.062 112.743C232.996 112.626 232.981 112.465 233.062 112.362" fill="#EB996E"/>
<path d="M235.66 110.598C235.492 110.591 235.492 111.689 234.547 112.465C233.603 113.248 232.432 113.116 232.425 113.27C232.41 113.336 232.688 113.482 233.179 113.497C233.662 113.511 234.372 113.358 234.95 112.882C235.528 112.406 235.777 111.769 235.814 111.315C235.858 110.869 235.733 110.591 235.66 110.598Z" fill="#263238"/>
<path d="M235.924 100.613C236.026 100.892 237.036 100.76 238.222 100.906C239.415 101.031 240.374 101.375 240.528 101.133C240.601 101.016 240.433 100.752 240.045 100.489C239.664 100.225 239.049 99.9692 238.332 99.8887C237.622 99.8082 236.963 99.918 236.531 100.094C236.099 100.262 235.88 100.482 235.924 100.613Z" fill="#263238"/>
<path d="M226.796 99.2446C226.971 99.4716 227.674 99.2373 228.508 99.23C229.35 99.1934 230.06 99.391 230.221 99.1495C230.295 99.0324 230.185 98.8054 229.87 98.5858C229.562 98.3662 229.05 98.1906 228.479 98.2052C227.901 98.2198 227.403 98.4321 227.11 98.6664C226.818 98.8933 226.715 99.1348 226.796 99.2446Z" fill="#263238"/>
<path d="M251.552 117.376C249.531 117.786 247.335 117.164 245.828 115.758C244.32 114.353 243.536 112.208 243.8 110.166C244.027 108.365 245 106.528 244.378 104.822C243.551 102.568 240.389 101.872 239.547 99.6179C239.057 98.3076 239.496 96.7777 238.947 95.4967C238.427 94.2889 237.161 93.5935 235.924 93.147C234.686 92.7005 233.362 92.3931 232.329 91.5879C231.29 90.7827 230.646 89.2601 231.312 88.1328C236.787 88.7916 242.19 90.1019 247.357 92.0271C248.558 92.4736 249.817 93.0153 250.52 94.0767C251.266 95.2039 251.23 96.6606 251.171 98.0148C250.864 104.61 250.556 111.198 250.249 117.793" fill="#263238"/>
<path d="M255.505 123.481C255.446 123.488 255.607 122.771 255.124 121.651C254.89 121.095 254.473 120.472 253.872 119.865C253.272 119.25 252.46 118.694 251.501 118.181C250.542 117.662 249.444 117.186 248.309 116.542C247.189 115.897 246.033 115.012 245.271 113.716C244.891 113.072 244.656 112.303 244.656 111.513C244.649 110.722 244.832 109.954 244.986 109.185C245.14 108.424 245.293 107.633 245.14 106.879C245.008 106.118 244.481 105.488 243.785 105.093C243.09 104.683 242.299 104.427 241.553 104.076C240.813 103.732 240.059 103.234 239.657 102.487C239.247 101.755 239.137 100.928 239.108 100.167C239.079 99.3982 239.13 98.6515 239.123 97.9415C239.115 97.2315 239.057 96.5361 238.83 95.9139C238.61 95.299 238.222 94.7719 237.717 94.4059C236.707 93.6593 235.514 93.4031 234.46 93.1323C233.398 92.8687 232.425 92.554 231.693 92.0343C230.946 91.5219 230.543 90.8118 230.375 90.2116C230.199 89.604 230.287 89.0916 230.397 88.7915C230.522 88.4841 230.653 88.3669 230.653 88.3669C230.675 88.3816 230.573 88.5207 230.47 88.8208C230.382 89.1209 230.331 89.604 230.514 90.175C230.697 90.7386 231.1 91.3974 231.81 91.8586C232.52 92.3344 233.464 92.6272 234.526 92.8687C235.58 93.1249 236.809 93.3665 237.907 94.1497C238.456 94.5377 238.903 95.116 239.144 95.7894C239.393 96.4629 239.459 97.1949 239.474 97.9269C239.489 98.6589 239.445 99.3982 239.474 100.145C239.503 100.884 239.62 101.645 239.986 102.29C240.345 102.948 241.004 103.388 241.721 103.724C242.446 104.068 243.236 104.317 243.99 104.756C244.364 104.976 244.715 105.254 244.986 105.606C245.264 105.957 245.432 106.374 245.52 106.791C245.689 107.648 245.513 108.475 245.359 109.244C245.198 110.02 245.022 110.766 245.03 111.498C245.03 112.223 245.235 112.926 245.586 113.533C246.289 114.756 247.394 115.619 248.477 116.263C249.575 116.908 250.673 117.398 251.64 117.94C252.606 118.467 253.433 119.06 254.033 119.711C254.641 120.355 255.051 121.014 255.27 121.592C255.497 122.171 255.556 122.661 255.556 122.983C255.563 123.144 255.541 123.269 255.534 123.349C255.519 123.437 255.512 123.481 255.505 123.481Z" fill="#263238"/>
<path d="M234.108 128.517C234.108 128.532 233.991 128.569 233.75 128.627C233.632 128.664 233.479 128.686 233.296 128.708C233.113 128.737 232.908 128.752 232.674 128.752C231.737 128.773 230.317 128.525 228.896 127.566C228.201 127.083 227.498 126.431 226.993 125.553C226.466 124.682 226.21 123.62 226.012 122.537C225.807 121.453 225.639 120.297 225.061 119.294C224.49 118.284 223.421 117.603 222.469 116.739C221.474 115.89 220.837 114.661 220.669 113.431C220.493 112.201 220.764 110.957 221.35 109.983C221.913 109.009 222.579 108.204 222.887 107.289C223.201 106.389 223.26 105.474 223.201 104.661C223.055 103.022 222.579 101.741 222.272 100.862C221.957 99.9839 221.767 99.5008 221.796 99.4935C221.811 99.4862 221.869 99.6033 221.979 99.8229C222.082 100.042 222.235 100.372 222.411 100.811C222.755 101.675 223.282 102.949 223.472 104.639C223.553 105.481 223.516 106.44 223.194 107.399C222.879 108.373 222.199 109.222 221.664 110.159C221.123 111.088 220.881 112.23 221.049 113.38C221.218 114.529 221.789 115.649 222.733 116.461C223.648 117.296 224.761 117.998 225.39 119.111C226.012 120.209 226.166 121.402 226.364 122.478C226.547 123.562 226.781 124.572 227.271 125.399C227.74 126.233 228.399 126.87 229.057 127.353C230.397 128.305 231.766 128.59 232.681 128.612C233.596 128.62 234.101 128.473 234.108 128.517Z" fill="#263238"/>
<path d="M255.432 93.5274C255.432 93.5274 255.519 93.6152 255.556 93.8275C255.6 94.0398 255.541 94.3912 255.27 94.7132C255.014 95.028 254.56 95.3428 253.96 95.3794C253.36 95.394 252.73 95.1305 252.101 94.823C251.471 94.5083 250.776 94.2228 249.956 94.1935C249.151 94.1423 248.28 94.2667 247.365 94.4278C246.45 94.5888 245.476 94.7938 244.437 94.8084C243.405 94.823 242.241 94.5156 241.428 93.7104C240.601 92.9272 240.133 91.939 239.701 91.024C239.269 90.109 238.859 89.2233 238.303 88.5059C237.219 87.0273 235.367 86.6173 234.064 86.9614C232.725 87.2981 231.912 88.2131 231.51 88.8499C231.1 89.5087 231.012 89.9479 230.968 89.9406C230.953 89.9406 230.968 89.8308 231.027 89.6259C231.085 89.4209 231.188 89.1281 231.378 88.7767C231.759 88.096 232.564 87.1005 233.991 86.6979C234.694 86.5075 235.528 86.4929 236.348 86.7418C237.175 86.976 237.981 87.525 238.574 88.2863C239.174 89.0403 239.598 89.9479 240.038 90.8629C240.477 91.7706 240.938 92.7222 241.692 93.4322C242.431 94.1569 243.463 94.4351 244.437 94.4351C245.425 94.4351 246.384 94.2374 247.306 94.0837C248.229 93.93 249.129 93.8129 249.978 93.8788C250.835 93.9227 251.603 94.2521 252.218 94.5815C252.84 94.9036 253.426 95.1598 253.953 95.1671C254.48 95.1598 254.912 94.8889 255.161 94.6181C255.417 94.3399 255.497 94.0398 255.483 93.8422C255.468 93.6299 255.41 93.5347 255.432 93.5274Z" fill="#455A64"/>
<path d="M251.318 91.412C248.924 90.8557 247.079 88.484 247.145 86.0245C247.204 83.565 249.158 81.2885 251.581 80.8493C252.752 80.637 254.099 80.9005 254.802 81.8594C255.475 82.7744 255.431 84.1433 256.288 84.8899C257.203 85.6878 258.616 85.3438 259.801 85.6C261.646 85.9952 262.876 88.0156 262.664 89.8895C262.451 91.7634 261.017 93.3592 259.274 94.0765C257.532 94.7939 255.541 94.7134 253.726 94.1863C251.918 93.6593 250.256 92.715 248.66 91.7268" fill="#263238"/>
<path d="M260.138 86.1049C260.175 86.1196 260.05 86.6686 259.596 87.4518C259.15 88.2351 258.315 89.2086 257.137 89.9479C255.958 90.6799 254.714 91.002 253.814 91.0606C252.913 91.1265 252.364 90.9874 252.364 90.9508C252.372 90.8849 252.921 90.9215 253.777 90.7897C254.633 90.6653 255.805 90.3213 256.932 89.6259C258.052 88.9231 258.879 88.0228 259.369 87.3054C259.867 86.5954 260.08 86.083 260.138 86.1049Z" fill="#455A64"/>
<path d="M256.259 94.2229C256.163 94.3034 255.043 92.4295 252.782 91.1558C250.542 89.8456 248.36 89.8236 248.382 89.6992C248.382 89.6552 248.917 89.5967 249.78 89.7138C250.637 89.8309 251.815 90.1603 252.972 90.8264C254.128 91.4926 255.007 92.3417 255.541 93.0224C256.076 93.7105 256.295 94.201 256.259 94.2229Z" fill="url(#paint5_linear_136:766)"/>
<path d="M202.918 173.945L191.081 171.639L193.219 174.677L188.131 177.217L183.886 175.233C183.886 175.233 184.193 176.163 185.123 177.715C186.052 179.267 187.29 180.504 188.095 180.57C189.303 180.665 189.515 180.679 188.095 180.57C188.095 180.57 188.351 182.012 189.669 183.41C190.452 184.244 192.509 185.562 195.019 184.888L202.991 182.012L202.918 173.945Z" fill="#FFBE9D"/>
<path d="M190.95 179.896C191.023 179.962 190.364 180.577 189.317 180.694C188.263 180.818 187.487 180.372 187.546 180.291C187.582 180.189 188.344 180.438 189.273 180.321C190.21 180.218 190.891 179.801 190.95 179.896Z" fill="#EB996E"/>
<path d="M192.501 182.421C192.575 182.487 192.069 183.066 191.184 183.293C190.305 183.527 189.581 183.271 189.61 183.175C189.632 183.066 190.305 183.132 191.089 182.919C191.872 182.729 192.428 182.341 192.501 182.421Z" fill="#EB996E"/>
<path d="M195.495 173.454C195.517 173.513 195.093 173.681 194.463 174.055C193.826 174.421 193.014 175.021 192.07 175.658C191.133 176.302 190.181 176.778 189.449 176.968C188.71 177.166 188.234 177.122 188.234 177.078C188.227 177.019 188.688 176.968 189.368 176.712C190.049 176.463 190.935 175.972 191.865 175.343C192.794 174.706 193.658 174.128 194.346 173.813C195.019 173.498 195.488 173.411 195.495 173.454Z" fill="#EB996E"/>
<path d="M267.473 193.643C267.473 193.643 267.883 193.9 268.886 195.693C271.982 201.219 273.234 214.461 261.551 226.283C246.45 241.56 228.779 266.543 228.779 266.543L214.901 325.22L193.936 320.682L204.74 259.692L234.364 204.74L267.473 193.643Z" fill="#263238"/>
<path d="M290.597 307.206L258.301 257.781L248.507 215.12L223.56 227.381L236.07 270.679L275.986 320.404L290.597 307.206Z" fill="#263238"/>
<path d="M214.9 325.22C214.893 325.22 214.908 325.118 214.952 324.927C214.996 324.723 215.054 324.444 215.135 324.086C215.303 323.324 215.552 322.248 215.859 320.858C216.511 318.039 217.448 313.999 218.597 309.014C220.954 299 224.197 285.202 227.776 269.962C228.055 268.776 228.34 267.597 228.596 266.492L228.604 266.448L228.625 266.419C237.783 254.714 246.113 244.356 252.254 237C255.329 233.325 257.832 230.39 259.618 228.406C260.497 227.403 261.207 226.656 261.683 226.137C261.91 225.895 262.093 225.705 262.232 225.558C262.356 225.427 262.422 225.368 262.429 225.368C262.437 225.375 262.378 225.441 262.261 225.58C262.129 225.727 261.961 225.932 261.741 226.181C261.287 226.715 260.592 227.476 259.728 228.494C257.986 230.507 255.505 233.464 252.459 237.161C246.377 244.561 238.083 254.941 228.933 266.653L228.97 266.58C228.706 267.678 228.428 268.856 228.15 270.049C224.526 285.282 221.24 299.066 218.861 309.072C217.66 314.05 216.679 318.083 216.006 320.894C215.662 322.27 215.398 323.346 215.208 324.1C215.12 324.452 215.047 324.73 214.988 324.935C214.937 325.125 214.908 325.22 214.9 325.22Z" fill="#455A64"/>
<path d="M252.774 209.242C252.782 209.264 252.606 209.374 252.269 209.52C251.932 209.674 251.42 209.85 250.769 210.003C249.48 210.311 247.57 210.435 245.586 209.857C243.61 209.279 242.058 208.159 241.135 207.2C240.667 206.724 240.338 206.292 240.133 205.985C239.928 205.677 239.832 205.487 239.854 205.48C239.906 205.443 240.367 206.124 241.326 207.01C242.277 207.895 243.793 208.942 245.696 209.491C247.599 210.047 249.444 209.974 250.717 209.74C251.998 209.513 252.752 209.184 252.774 209.242Z" fill="#455A64"/>
<path d="M270.584 196.139C257.957 202.793 237.446 206.768 230.895 204.067L230.668 179.735C230.668 179.735 221.686 164.92 221.65 159.32C221.598 151.246 231.649 132.843 231.649 132.843L246.735 128.847C250.285 128.832 253.155 129.645 255.468 130.874C261.28 133.963 264.442 140.449 263.791 146.993L259.992 171.2L270.584 196.139Z" fill="url(#paint6_linear_136:766)"/>
<g opacity="0.3">
<path opacity="0.3" d="M254.392 130.845C255.27 130.713 255.592 132.148 254.963 132.77C254.333 133.392 253.36 133.429 252.481 133.568C248.551 134.183 245.52 137.55 244.085 141.254C242.651 144.965 242.519 149.021 242.285 152.995C242.05 156.963 241.663 161.047 239.796 164.561C236.326 158.405 235.785 150.682 238.361 144.109C240.938 137.528 246.589 132.236 253.316 130.076" fill="black"/>
</g>
<path d="M255.461 130.867C255.461 130.867 253.294 127.287 246.011 128.839C241.143 129.879 230.514 140.083 233.479 156.494C236.443 172.906 244.393 178.71 244.393 178.71C244.393 178.71 237.08 153.596 241.143 142.637C245.198 131.672 255.461 130.867 255.461 130.867Z" fill="#263238"/>
<g opacity="0.3">
<path opacity="0.3" d="M230.939 184.932C233.947 185.899 236.831 187.106 239.964 187.524C243.097 187.941 246.369 187.78 249.275 186.543C253.294 184.83 256.281 181.17 257.818 177.078C259.355 172.986 259.567 168.506 259.157 164.151C256.405 167.547 256.742 172.576 254.407 176.265C252.943 178.579 250.564 180.145 248.119 181.375C242.797 184.054 236.89 185.064 230.939 184.932Z" fill="black"/>
</g>
<path d="M239.986 160.066C239.986 160.066 239.005 178.542 261.544 174.867L263.813 180.211C263.813 180.211 240.118 185.218 236.758 165.593L239.986 160.066Z" fill="#263238"/>
<path d="M260.526 137.103C262.495 139.914 263.008 143.493 262.195 146.824L256.581 171.954C254.172 179.025 247.299 183.314 243.024 183.892L202.991 188.109V173.191L240.155 167.671L241.897 147.322C242.05 144.584 243.397 139.665 245.14 137.55C247.087 135.178 250.081 131.957 254.97 132.777C257.964 133.267 259.238 135.266 260.526 137.103Z" fill="url(#paint7_linear_136:766)"/>
<path d="M261.683 147.798C261.697 147.798 261.683 147.995 261.639 148.361C261.602 148.735 261.529 149.276 261.441 149.979C261.251 151.377 260.951 153.405 260.512 155.894C260.072 158.383 259.487 161.34 258.74 164.597C258.359 166.23 257.964 167.935 257.474 169.692C256.983 171.449 256.39 173.257 255.512 174.999C254.641 176.741 253.499 178.308 252.13 179.545C250.769 180.789 249.253 181.741 247.724 182.451C244.664 183.885 241.633 184.412 239.123 184.683C236.597 184.94 234.547 184.954 233.135 184.969C232.454 184.969 231.912 184.961 231.51 184.961C231.136 184.954 230.939 184.947 230.939 184.932C230.939 184.918 231.136 184.903 231.502 184.888C231.912 184.874 232.454 184.852 233.127 184.822C234.54 184.764 236.582 184.705 239.086 184.412C241.575 184.112 244.569 183.556 247.57 182.129C249.063 181.426 250.549 180.482 251.874 179.267C253.206 178.059 254.319 176.536 255.168 174.831C256.024 173.125 256.617 171.339 257.108 169.597C257.598 167.855 258.001 166.149 258.389 164.524C259.157 161.274 259.765 158.331 260.233 155.85C260.709 153.368 261.046 151.355 261.28 149.957C261.39 149.291 261.485 148.757 261.551 148.354C261.632 147.988 261.675 147.798 261.683 147.798Z" fill="#263238"/>
<path d="M240.334 169.763C240.732 170.994 241.136 171.966 241.236 171.934C241.336 171.901 241.094 170.877 240.696 169.646C240.299 168.415 239.895 167.444 239.795 167.476C239.695 167.508 239.937 168.532 240.334 169.763Z" fill="#263238"/>
<path d="M243.507 171.376C243.449 171.456 242.453 170.834 241.465 169.787C240.469 168.748 239.898 167.716 239.986 167.665C240.074 167.606 240.777 168.506 241.743 169.524C242.702 170.549 243.573 171.288 243.507 171.376Z" fill="#263238"/>
<path d="M206.475 172.671C206.475 172.664 206.534 172.649 206.644 172.627C206.775 172.605 206.937 172.576 207.141 172.532C207.61 172.452 208.247 172.349 209.059 172.21C210.765 171.947 213.18 171.566 216.182 171.098C222.25 170.183 230.661 168.909 240.125 167.474L239.964 167.643C240.096 166.252 240.235 164.788 240.382 163.302C240.865 158.017 241.37 152.995 241.619 148.406C241.802 146.1 242.241 143.933 242.863 141.979C243.485 140.024 244.305 138.245 245.484 136.913C247.855 134.329 250.512 132.96 252.467 132.711C253.44 132.565 254.209 132.668 254.714 132.748C254.963 132.807 255.153 132.858 255.278 132.894C255.402 132.931 255.468 132.953 255.468 132.96C255.468 133.034 254.414 132.558 252.489 132.858C250.586 133.143 247.994 134.527 245.681 137.089C244.561 138.384 243.763 140.141 243.163 142.074C242.563 144.014 242.138 146.158 241.97 148.435C241.743 153.024 241.245 158.061 240.762 163.346C240.616 164.832 240.477 166.303 240.345 167.686L240.33 167.833L240.184 167.855C230.705 169.238 222.294 170.468 216.218 171.354C213.217 171.778 210.787 172.115 209.081 172.357C208.261 172.466 207.617 172.547 207.149 172.613C206.944 172.635 206.783 172.657 206.644 172.671C206.534 172.671 206.475 172.671 206.475 172.671Z" fill="#263238"/>
<path d="M228.448 177.279C228.867 181.467 229.291 184.853 229.395 184.842C229.5 184.832 229.245 181.429 228.827 177.241C228.408 173.054 227.984 169.668 227.879 169.678C227.774 169.689 228.029 173.092 228.448 177.279Z" fill="#FAFAFA"/>
<path d="M258.696 162.153C258.696 162.204 257.723 162.219 256.149 162.189C254.575 162.167 252.408 162.101 250.007 162.014C247.606 161.926 245.44 161.823 243.873 161.728C242.307 161.633 241.333 161.552 241.34 161.501C241.34 161.45 242.314 161.435 243.888 161.465C245.462 161.487 247.628 161.552 250.022 161.64C252.416 161.728 254.582 161.831 256.156 161.926C257.73 162.021 258.696 162.101 258.696 162.153Z" fill="#FAFAFA"/>
<path d="M233.281 157.402C233.281 157.453 232.652 157.548 231.619 157.621C230.587 157.695 229.167 157.746 227.586 157.717C226.012 157.687 224.585 157.577 223.56 157.46C222.535 157.343 221.906 157.226 221.913 157.175C221.92 157.124 222.557 157.146 223.582 157.19C224.607 157.233 226.027 157.299 227.593 157.329C229.16 157.358 230.58 157.351 231.605 157.343C232.637 157.343 233.281 157.343 233.281 157.402Z" fill="#FAFAFA"/>
<path d="M236.59 140.017C236.531 140.112 234.994 139.307 233.003 138.553C231.012 137.792 229.321 137.374 229.35 137.265C229.365 137.169 231.114 137.426 233.142 138.194C235.162 138.963 236.641 139.936 236.59 140.017Z" fill="#FAFAFA"/>
<path d="M265.665 185.686C265.672 185.701 265.555 185.752 265.335 185.847C265.072 185.957 264.757 186.089 264.369 186.243C263.527 186.587 262.298 187.041 260.768 187.575C257.708 188.644 253.418 189.961 248.594 191.067C243.771 192.172 239.335 192.853 236.114 193.219C234.504 193.402 233.201 193.526 232.293 193.585C231.876 193.607 231.532 193.629 231.253 193.643C231.012 193.651 230.887 193.651 230.887 193.636C230.887 193.621 231.012 193.599 231.246 193.563C231.524 193.526 231.868 193.482 232.278 193.431C233.179 193.328 234.474 193.167 236.077 192.948C239.283 192.516 243.697 191.791 248.507 190.693C253.316 189.588 257.605 188.322 260.68 187.319C262.217 186.821 263.461 186.396 264.311 186.104C264.706 185.972 265.035 185.862 265.299 185.774C265.54 185.708 265.657 185.679 265.665 185.686Z" fill="#FAFAFA"/>
<path d="M253.643 141.795C258.964 141.967 263.281 142.021 263.284 141.916C263.288 141.811 258.977 141.586 253.655 141.414C248.333 141.242 244.017 141.188 244.013 141.293C244.01 141.398 248.321 141.623 253.643 141.795Z" fill="#FAFAFA"/>
<path d="M211.231 179.73C211.386 183.766 211.597 187.035 211.702 187.031C211.807 187.027 211.767 183.752 211.612 179.716C211.457 175.68 211.246 172.411 211.141 172.416C211.036 172.42 211.076 175.695 211.231 179.73Z" fill="#FAFAFA"/>
<path d="M129.806 112.157C136.276 110.935 143.091 111.645 149.174 114.177C151.897 115.312 154.584 116.915 156.055 119.462C157.79 122.478 157.504 126.204 157.321 129.681C156.941 136.759 157.19 143.867 158.061 150.902C158.785 156.758 159.942 162.584 159.927 168.484C159.905 174.384 158.588 180.504 154.891 185.101C149.189 192.187 139.029 194.17 130.018 192.97C125.275 192.34 120.538 190.913 116.666 188.095C112.801 185.276 109.888 180.914 109.558 176.141" fill="#455A64"/>
<path d="M141.093 121.131C141.027 121.19 142.198 122.2 143.23 124.403C143.75 125.494 144.226 126.856 144.68 128.407C145.148 129.945 145.602 131.679 146.371 133.407C147.139 135.134 148.215 136.657 149.526 137.682C150.821 138.729 152.358 139.168 153.61 139.139C154.869 139.124 155.857 138.721 156.421 138.326C156.714 138.136 156.912 137.945 157.029 137.814C157.153 137.675 157.212 137.601 157.197 137.587C157.168 137.55 156.904 137.836 156.319 138.165C155.748 138.502 154.803 138.831 153.61 138.802C152.424 138.787 151.012 138.348 149.804 137.338C148.581 136.35 147.557 134.886 146.81 133.209C146.063 131.526 145.595 129.82 145.104 128.276C144.629 126.731 144.109 125.348 143.538 124.257C142.974 123.159 142.367 122.346 141.891 121.849C141.422 121.336 141.108 121.109 141.093 121.131Z" fill="#263238"/>
<path d="M143.677 192.509C143.692 192.509 143.728 192.311 143.787 191.93C143.845 191.498 143.919 190.949 144.006 190.269C144.189 188.819 144.431 186.726 144.702 184.135C145.251 178.945 145.917 171.771 146.481 163.836C147.044 155.894 147.403 148.698 147.586 143.487C147.681 140.881 147.74 138.773 147.762 137.316C147.769 136.628 147.776 136.071 147.776 135.64C147.776 135.259 147.769 135.054 147.747 135.054C147.732 135.054 147.703 135.252 147.674 135.64C147.644 136.071 147.608 136.628 147.564 137.316C147.483 138.831 147.374 140.925 147.235 143.479C146.956 148.684 146.546 155.872 145.99 163.814C145.426 171.749 144.819 178.923 144.35 184.113C144.124 186.66 143.941 188.746 143.809 190.261C143.758 190.949 143.714 191.498 143.677 191.938C143.662 192.311 143.662 192.509 143.677 192.509Z" fill="#263238"/>
<path d="M146.568 160.725C146.554 160.85 149.394 161.245 152.929 161.333C156.465 161.428 159.32 161.186 159.313 161.054C159.305 160.915 156.45 160.945 152.937 160.85C149.431 160.762 146.583 160.586 146.568 160.725Z" fill="#263238"/>
<path d="M148.867 161.003C148.808 160.981 148.552 161.457 148.274 162.292C148.135 162.709 148.003 163.214 147.893 163.785C147.842 164.078 147.798 164.415 147.908 164.781C148.01 165.154 148.332 165.491 148.772 165.571C148.991 165.608 149.255 165.542 149.423 165.381C149.599 165.227 149.679 165.022 149.723 164.846C149.804 164.48 149.76 164.166 149.738 163.88C149.679 163.295 149.57 162.782 149.445 162.358C149.204 161.508 148.925 161.033 148.867 161.055C148.801 161.084 148.955 161.596 149.108 162.431C149.182 162.848 149.255 163.353 149.284 163.909C149.299 164.195 149.321 164.48 149.255 164.729C149.196 164.978 149.043 165.117 148.838 165.088C148.34 165 148.23 164.385 148.325 163.851C148.406 163.295 148.508 162.797 148.596 162.38C148.794 161.545 148.933 161.025 148.867 161.003Z" fill="#263238"/>
<path d="M123.122 113.928L153.749 114.939C157.629 115.063 160.872 112.025 160.996 108.153L161.194 102.202C161.318 98.3222 158.28 95.0795 154.408 94.955L123.781 93.9449C119.902 93.8204 116.659 96.8582 116.534 100.73L116.337 106.682C116.205 110.554 119.243 113.804 123.122 113.928Z" fill="#263238"/>
<path d="M153.676 95.3355C153.683 95.3209 153.596 95.2623 153.413 95.1672C153.23 95.0793 152.944 94.9769 152.556 94.9037C151.795 94.7646 150.587 94.8305 149.35 95.5039C148.142 96.1554 146.707 97.1289 145.727 98.7247C144.716 100.284 144.16 102.304 144.006 104.405C143.809 106.528 144.277 108.599 145.178 110.217C146.078 111.849 147.403 112.984 148.647 113.606C149.899 114.243 151.034 114.433 151.809 114.441C152.197 114.455 152.498 114.426 152.695 114.397C152.893 114.368 153.003 114.338 152.995 114.324C152.988 114.28 152.571 114.324 151.817 114.25C151.07 114.185 149.979 113.943 148.801 113.299C147.622 112.662 146.393 111.564 145.565 110.005C144.724 108.453 144.292 106.484 144.482 104.442C144.629 102.392 145.156 100.46 146.093 98.9589C146.993 97.4364 148.347 96.4701 149.496 95.7967C150.66 95.1159 151.78 95.0061 152.519 95.0867C153.281 95.1745 153.661 95.3795 153.676 95.3355Z" fill="#455A64"/>
<path d="M136.437 94.2815L141.093 94.5157C139.819 94.6694 138.655 95.3868 137.806 96.3384C136.957 97.2973 136.394 98.4759 136.006 99.6983C134.388 104.852 136.342 110.956 140.427 114.492L136.657 114.426C136.664 114.441 127.492 103.373 136.437 94.2815Z" fill="#455A64"/>
<path d="M113.687 85.5122C111.784 80.9153 111.689 72.9145 114.595 68.7055C117.501 64.4965 122.947 61.7222 127.946 60.6462C128.781 60.4632 129.681 60.3461 130.472 60.6755C131.262 61.0049 131.848 61.9491 131.511 62.7324C132.514 62.1029 133.546 61.466 134.695 61.2025C135.852 60.939 137.177 61.1073 138.019 61.9345C138.868 62.7617 138.999 64.3208 138.099 65.0894C139.497 64.577 141.174 64.9796 142.191 66.0557C143.216 67.1317 143.516 68.8299 142.93 70.1988C142.374 71.5091 141.188 72.9657 140.134 73.9247C139.087 74.8836 138.912 75.8791 139.087 77.2919" fill="#263238"/>
<path d="M114.88 77.0723L113.555 105.24C113.328 110.027 117.157 114.031 121.951 114.024C126.424 114.016 130.106 110.488 130.311 106.016C130.406 103.893 130.494 102.129 130.516 101.909C130.516 101.909 137.718 101.572 138.568 94.5012C138.977 91.0828 139.256 83.9751 139.424 77.5408C139.607 70.6307 134.454 64.7381 127.58 63.9988L126.899 63.9256C119.492 63.5596 115.041 69.6498 114.88 77.0723Z" fill="#FFBE9D"/>
<path d="M130.545 101.807C130.545 101.807 126.028 101.689 121.593 98.1904C121.593 98.1904 123.005 102.619 130.142 102.743L130.545 101.807Z" fill="#EB996E"/>
<path d="M136.862 82.0573C136.825 82.5916 136.335 83.0016 135.779 82.9723C135.222 82.943 134.798 82.4818 134.834 81.9475C134.871 81.4131 135.361 81.0032 135.918 81.0325C136.474 81.0618 136.899 81.5229 136.862 82.0573Z" fill="#263238"/>
<path d="M137.535 80.8494C137.396 80.9665 136.694 80.3151 135.603 80.2053C134.52 80.0735 133.656 80.5493 133.553 80.4029C133.502 80.337 133.656 80.1101 134.029 79.8978C134.395 79.6855 135.01 79.5025 135.684 79.5757C136.364 79.6489 136.906 79.9637 137.206 80.2565C137.521 80.5493 137.609 80.7982 137.535 80.8494Z" fill="#263238"/>
<path d="M126.146 81.2812C126.109 81.8155 125.619 82.2254 125.062 82.1962C124.506 82.1669 124.081 81.7057 124.118 81.1714C124.155 80.637 124.645 80.2271 125.201 80.2564C125.765 80.2856 126.189 80.7395 126.146 81.2812Z" fill="#263238"/>
<path d="M126.819 79.8978C126.68 80.0149 125.97 79.3634 124.887 79.2536C123.803 79.1218 122.939 79.5976 122.837 79.4512C122.786 79.3854 122.939 79.1584 123.313 78.9462C123.679 78.7339 124.294 78.5509 124.967 78.6241C125.648 78.7046 126.19 79.012 126.49 79.3048C126.797 79.5976 126.885 79.8465 126.819 79.8978Z" fill="#263238"/>
<path d="M129.901 88.3964C129.901 88.3305 130.589 88.2866 131.701 88.2646C131.98 88.2646 132.25 88.2426 132.316 88.0523C132.404 87.862 132.316 87.5472 132.221 87.2105C132.031 86.5078 131.833 85.7758 131.628 85.0072C130.808 81.8742 130.252 79.3049 130.376 79.2756C130.501 79.2464 131.27 81.7571 132.082 84.8974C132.28 85.6733 132.463 86.4053 132.638 87.108C132.712 87.4374 132.851 87.8108 132.668 88.2134C132.572 88.411 132.353 88.5428 132.17 88.572C131.987 88.6086 131.826 88.594 131.694 88.5867C130.581 88.5281 129.893 88.4622 129.901 88.3964Z" fill="#263238"/>
<path d="M126.614 88.8061C126.79 88.8134 126.665 89.9993 127.588 90.9436C128.503 91.8952 129.776 91.8952 129.769 92.0635C129.776 92.1367 129.462 92.2612 128.927 92.2172C128.407 92.1806 127.661 91.9318 127.097 91.3462C126.534 90.7679 126.343 90.0505 126.358 89.5601C126.372 89.0696 126.534 88.7842 126.614 88.8061Z" fill="#263238"/>
<path d="M127.558 75.6669C127.419 75.9523 126.351 75.6961 125.055 75.7108C123.759 75.7035 122.69 75.967 122.551 75.6815C122.493 75.5497 122.698 75.2862 123.144 75.0447C123.591 74.8031 124.279 74.6055 125.048 74.5981C125.823 74.5981 126.512 74.7958 126.958 75.0373C127.412 75.2716 127.624 75.5278 127.558 75.6669Z" fill="#263238"/>
<path d="M137.477 77.6578C137.257 77.8847 136.54 77.548 135.64 77.4382C134.746 77.2992 133.956 77.4236 133.81 77.1454C133.744 77.0137 133.89 76.7794 134.249 76.5818C134.6 76.3842 135.171 76.2524 135.793 76.3402C136.408 76.4281 136.921 76.7062 137.206 76.999C137.499 77.2772 137.572 77.548 137.477 77.6578Z" fill="#263238"/>
<path d="M114.895 82.3793C114.778 82.3134 110.188 80.4176 109.815 85.2707C109.449 90.1312 114.397 89.4944 114.419 89.3553C114.441 89.2235 114.895 82.3793 114.895 82.3793Z" fill="#FFBE9D"/>
<path d="M113.079 87.4082C113.057 87.3936 112.991 87.4595 112.845 87.518C112.699 87.5693 112.457 87.5985 112.208 87.4814C111.71 87.2545 111.337 86.4054 111.381 85.527C111.403 85.0805 111.527 84.6705 111.71 84.3338C111.886 83.9898 112.135 83.7555 112.399 83.7336C112.662 83.697 112.83 83.8653 112.882 84.0044C112.933 84.1435 112.896 84.2387 112.926 84.2533C112.94 84.2679 113.035 84.1801 113.013 83.9751C112.999 83.88 112.955 83.7555 112.845 83.6531C112.735 83.5506 112.567 83.4847 112.384 83.492C112.011 83.492 111.645 83.8068 111.44 84.1801C111.22 84.5534 111.066 85.0146 111.044 85.5123C111 86.4932 111.432 87.4448 112.12 87.701C112.457 87.8181 112.75 87.7376 112.904 87.6278C113.057 87.5253 113.094 87.4155 113.079 87.4082Z" fill="#EB996E"/>
<path d="M143.23 68.6103C143.318 74.9495 135.361 76.9844 132.221 73.2073C130.772 71.4578 129.557 69.3204 127.463 68.42C126.058 67.8125 124.411 67.9588 122.998 68.5444C122.983 68.5518 122.969 68.5591 122.954 68.5591C120.875 69.4448 119.514 71.6701 119.031 73.8807C118.357 76.9624 118.65 79.7441 117.625 82.5403C117.479 82.9429 117.303 83.3748 116.944 83.5944C116.322 83.975 115.502 83.5358 115.063 82.9575C114.353 82.0352 114.17 80.8201 114.09 79.6562C113.907 77.0137 114.126 74.3199 114.983 71.8092C115.839 69.2984 117.347 66.9853 119.448 65.3676C122.076 63.3473 125.538 62.5274 128.825 62.9373C132.111 63.3399 135.208 64.9284 137.623 67.1976C138.743 68.2517 139.746 69.4814 140.229 70.9454" fill="#263238"/>
<path d="M138.355 64.7528C138.355 64.7382 138.604 64.7162 139.021 64.8333C139.439 64.9504 140.032 65.2579 140.559 65.8508C141.078 66.4364 141.532 67.3294 141.576 68.3908C141.62 69.4522 141.181 70.6015 140.405 71.5238C139.622 72.4461 138.604 73.061 137.616 73.3758C136.628 73.6978 135.691 73.771 134.922 73.7637C134.146 73.7491 133.531 73.6539 133.107 73.5661C132.682 73.4782 132.463 73.405 132.463 73.3831C132.47 73.3172 133.407 73.5222 134.922 73.5002C135.676 73.4782 136.577 73.3758 137.506 73.0537C138.436 72.7389 139.38 72.1533 140.119 71.2896C140.844 70.4331 141.261 69.379 141.232 68.4128C141.21 67.4466 140.815 66.6048 140.354 66.0338C139.885 65.4628 139.358 65.1334 138.97 64.987C138.59 64.8114 138.348 64.7894 138.355 64.7528Z" fill="#455A64"/>
<path d="M135.274 62.2786C135.274 62.2567 135.457 62.2347 135.727 62.3958C135.991 62.5495 136.32 62.9228 136.408 63.4938C136.496 64.0647 136.269 64.7235 135.896 65.3238C135.522 65.924 135.032 66.5389 134.424 67.0806C133.209 68.1786 131.811 68.7788 130.779 69.013C129.74 69.2692 129.074 69.2034 129.081 69.1668C129.074 69.1009 129.725 69.0643 130.713 68.7568C131.694 68.464 133.012 67.8492 134.176 66.7951C134.761 66.2754 135.23 65.6898 135.61 65.1334C135.984 64.5771 136.196 63.9988 136.152 63.5157C136.108 63.0326 135.859 62.6812 135.654 62.5129C135.435 62.3445 135.266 62.3079 135.274 62.2786Z" fill="#455A64"/>
<path d="M114.69 131.445L116.974 114.8L84.2531 121.366L54.4827 111.044L46.4453 119.309L78.1263 135.625C80.9518 136.972 84.136 137.382 87.2104 136.782L114.69 131.445Z" fill="#FFBE9D"/>
<path d="M54.4827 111.045C54.4827 111.045 43.1001 105.598 42.3681 105.415C41.8045 105.276 33.2108 104.815 29.2946 104.618C27.7428 104.537 27.5085 106.843 29.053 107.055C29.097 107.062 29.1482 107.07 29.1994 107.07C31.3881 107.253 36.1974 108.343 36.1974 108.343L34.0087 113.46C33.7818 113.987 33.9501 114.595 34.4113 114.931L41.0359 119.829C42.8 120.626 44.8642 120.429 46.438 119.301L49.3587 119.902L54.4827 111.045Z" fill="#FFBE9D"/>
<path d="M33.9792 113.768C34.1915 114.727 36.468 116.681 38.2029 116.681C38.5835 116.681 38.9715 116.571 39.2496 116.308C39.5205 116.044 39.6522 115.612 39.4912 115.268C39.3887 115.041 39.1838 114.88 38.9861 114.727C37.6905 113.724 36.4022 112.721 35.1065 111.718" fill="#FFBE9D"/>
<path d="M35.114 111.718C35.1433 111.674 35.7655 112.091 36.7317 112.801C37.2514 113.189 37.8151 113.607 38.4226 114.068C38.7447 114.317 39.0668 114.529 39.4181 114.851C39.5938 115.012 39.7475 115.283 39.7475 115.561C39.7549 115.832 39.6597 116.103 39.4913 116.315C39.14 116.747 38.5983 116.879 38.1371 116.864C37.6687 116.849 37.2441 116.725 36.8635 116.564C36.1095 116.242 35.5093 115.803 35.0554 115.393C34.6016 114.983 34.2941 114.587 34.1258 114.28C33.9574 113.973 33.9501 113.768 33.9721 113.768C34.0013 113.76 34.0599 113.936 34.2502 114.199C34.4405 114.463 34.7699 114.814 35.2311 115.188C35.6849 115.561 36.2852 115.949 36.9952 116.234C37.3466 116.374 37.7419 116.483 38.1445 116.491C38.5324 116.505 38.957 116.381 39.1912 116.081C39.4255 115.773 39.4328 115.363 39.1546 115.114C38.8765 114.851 38.5031 114.587 38.2103 114.346C37.6174 113.87 37.0684 113.424 36.5707 113.021C35.6337 112.252 35.0774 111.762 35.114 111.718Z" fill="#EB996E"/>
<path d="M43.1733 116.725C43.1367 116.754 42.9171 116.593 42.6755 116.227C42.434 115.868 42.207 115.283 42.1778 114.609C42.1485 113.936 42.3242 113.336 42.5291 112.955C42.7341 112.567 42.939 112.391 42.9756 112.413C43.0708 112.472 42.4852 113.358 42.5584 114.587C42.6023 115.832 43.2684 116.659 43.1733 116.725Z" fill="#EB996E"/>
<path d="M38.6202 114.096C38.9642 114.631 39.6816 114.902 40.2965 114.719C40.9113 114.543 41.3652 113.928 41.3725 113.291C41.3725 112.457 40.7064 111.791 40.0842 111.234C39.1326 110.378 38.181 109.521 37.2367 108.665" fill="#FFBE9D"/>
<path d="M37.2368 108.658C37.2734 108.622 37.7272 108.966 38.4299 109.551C38.8179 109.881 39.2278 110.232 39.6524 110.605C40.0989 111.015 40.6406 111.418 41.0871 112.011C41.3067 112.311 41.4824 112.655 41.5336 113.021C41.5922 113.387 41.5116 113.76 41.3433 114.053C41.0139 114.653 40.377 114.946 39.8793 114.902C39.3742 114.873 39.0228 114.639 38.8398 114.441C38.6495 114.243 38.6056 114.097 38.6276 114.082C38.6568 114.068 38.7374 114.185 38.935 114.324C39.1326 114.463 39.462 114.631 39.8866 114.624C40.3038 114.624 40.787 114.368 41.0432 113.877C41.314 113.394 41.1969 112.75 40.787 112.223C40.3917 111.696 39.8573 111.271 39.4254 110.854C39.0155 110.466 38.6276 110.093 38.2542 109.742C37.5881 109.112 37.2002 108.702 37.2368 108.658Z" fill="#EB996E"/>
<path d="M43.5027 108.226C41.2116 108.768 39.0083 109.69 37.0099 110.942C36.8928 111.015 36.761 111.103 36.7244 111.242C36.6732 111.432 36.8196 111.615 36.9733 111.74C37.5589 112.208 38.3714 112.289 39.1181 112.23C39.8647 112.164 40.6113 111.981 41.358 112.003C42.6609 112.033 43.8614 112.655 45.1205 112.999C46.3795 113.343 47.9021 113.336 48.7658 112.362" fill="#FFBE9D"/>
<path d="M48.7658 112.355C48.7731 112.362 48.7365 112.421 48.6487 112.53C48.5535 112.633 48.4071 112.779 48.1729 112.911C47.719 113.197 46.9358 113.394 45.9915 113.299C45.0326 113.226 44.0005 112.772 42.8512 112.435C42.273 112.267 41.6654 112.15 41.0212 112.186C40.3771 112.216 39.711 112.377 38.9863 112.428C38.2689 112.472 37.493 112.377 36.9001 111.93C36.7537 111.82 36.6 111.681 36.5341 111.44C36.5048 111.323 36.5268 111.176 36.5926 111.066C36.6585 110.964 36.739 110.898 36.8196 110.847C37.105 110.664 37.3686 110.51 37.6394 110.356C38.7081 109.749 39.7329 109.31 40.5967 108.988C41.4678 108.665 42.1924 108.468 42.6975 108.351C43.2026 108.234 43.4881 108.197 43.4954 108.219C43.51 108.285 42.3974 108.541 40.6992 109.236C39.85 109.588 38.8618 110.049 37.8151 110.656C37.5589 110.81 37.2807 110.971 37.0318 111.14C36.9147 111.227 36.8781 111.279 36.9001 111.352C36.922 111.432 37.0099 111.542 37.127 111.623C37.6101 111.989 38.2909 112.084 38.9643 112.04C39.6451 111.996 40.3185 111.842 41.0066 111.806C41.702 111.769 42.3608 111.908 42.9537 112.091C44.1322 112.465 45.1278 112.926 46.0281 113.028C46.9212 113.153 47.6605 113.006 48.107 112.779C48.5535 112.567 48.7365 112.325 48.7658 112.355Z" fill="#EB996E"/>
<path d="M84.7582 127.127C84.6631 127.148 84.2751 125.853 84.2312 124.199C84.1799 122.537 84.4947 121.219 84.5899 121.241C84.6997 121.256 84.5606 122.573 84.6118 124.191C84.6557 125.802 84.868 127.105 84.7582 127.127Z" fill="#EB996E"/>
<path d="M113.387 107.077L104.105 117.537C104.105 117.537 99.1494 153.662 98.7907 156.502C98.4393 159.335 97.495 168.411 97.495 170.893C97.495 173.374 95.4381 191.111 95.4381 191.111C95.4381 191.111 134.834 199.287 141.422 191.111L139.373 175.922L141.159 138.238C141.159 138.238 144.116 112.084 130.318 106.016C130.318 106.016 121.6 111.271 113.387 107.077Z" fill="url(#paint8_linear_136:766)"/>
<path d="M136.642 109.72C136.642 109.72 133.927 107.033 125.252 109.28C116.11 111.652 111.286 120.209 113.555 144.438C115.429 164.415 123.327 167.291 123.327 167.291C123.327 167.291 119.001 137.155 119.74 124.55C120.677 108.629 136.642 112.589 136.642 112.589C138.912 111.857 136.642 109.72 136.642 109.72Z" fill="#263238"/>
<path d="M113.387 107.077L105.364 109.288L87.3129 120.341L92.4515 136.665L103.051 135.501L113.387 107.077Z" fill="url(#paint9_linear_136:766)"/>
<path d="M101.926 131.449C102.595 124.26 103.052 118.424 102.947 118.414C102.843 118.405 102.216 124.225 101.547 131.414C100.879 138.603 100.422 144.439 100.526 144.449C100.631 144.459 101.258 138.639 101.926 131.449Z" fill="#263238"/>
<path d="M139.687 169.143C139.687 169.143 137.125 177.378 128.063 163.778C119.008 150.177 120.282 156.26 120.282 156.26L118.423 158.471C118.423 158.471 128.385 180.914 139.563 177.393L139.687 169.143Z" fill="#263238"/>
<path opacity="0.3" d="M102.582 122.332L95.4381 136.335L101.338 135.691L102.582 122.332Z" fill="black"/>
<g opacity="0.3">
<path opacity="0.3" d="M99.303 159.51C104.537 165.22 110.773 170.007 117.64 173.587C120.524 175.095 123.701 176.419 126.921 176.002C130.464 175.548 133.495 172.979 135.171 169.831C136.847 166.677 136.606 165.154 137.001 161.611C137.44 157.702 137.44 152.483 137.645 148.926C137.682 148.296 137.696 147.564 137.696 146.869C137.696 145.324 138.707 143.955 140.192 143.509C140.192 143.509 138.033 142.491 136.584 142.696C135.134 142.901 134.044 144.109 133.282 145.361C129.264 151.985 131.013 161.692 123.349 165.82C120.846 167.167 117.932 167.482 115.129 167.028C108.856 166.003 104.054 161.882 99.4274 157.863" fill="black"/>
</g>
<path d="M107.97 145.8C109.89 145.8 111.447 141.12 111.447 135.347C111.447 129.574 109.89 124.894 107.97 124.894C106.05 124.894 104.493 129.574 104.493 135.347C104.493 141.12 106.05 145.8 107.97 145.8Z" fill="#FAFAFA"/>
<path d="M109.829 317.146L110.627 334.356C110.627 334.356 93.4031 340.944 93.2421 344.142L126.665 343.798L126.526 316.934L109.829 317.146Z" fill="url(#paint10_linear_136:766)"/>
<g opacity="0.6">
<path opacity="0.6" d="M120.948 332.804C121.6 332.972 122.054 333.697 121.907 334.348C121.761 335.007 121.036 335.476 120.385 335.314C119.733 335.153 119.162 334.304 119.375 333.667C119.587 333.031 120.48 332.526 121.073 332.84" fill="white"/>
</g>
<path opacity="0.6" d="M126.658 343.798L126.643 341.119L94.5378 342.437C94.5378 342.437 93.0592 343.103 93.2348 344.142L126.658 343.798Z" fill="white"/>
<path d="M110.078 334.195C110.085 334.356 110.905 334.421 111.71 334.941C112.53 335.439 112.955 336.142 113.101 336.076C113.255 336.039 112.999 335.073 112.011 334.458C111.03 333.836 110.042 334.041 110.078 334.195Z" fill="#263238"/>
<path d="M106.594 335.681C106.557 335.842 107.267 336.112 107.831 336.793C108.409 337.459 108.563 338.206 108.724 338.199C108.878 338.221 108.98 337.269 108.263 336.427C107.553 335.585 106.594 335.527 106.594 335.681Z" fill="#263238"/>
<path d="M104.647 339.897C104.793 339.933 105.013 339.114 104.588 338.22C104.164 337.327 103.395 336.983 103.322 337.122C103.234 337.254 103.732 337.73 104.068 338.469C104.427 339.194 104.478 339.882 104.647 339.897Z" fill="#263238"/>
<path d="M110.334 330.249C110.408 330.395 111.154 330.161 112.076 330.22C112.999 330.256 113.724 330.557 113.804 330.417C113.899 330.3 113.189 329.7 112.098 329.656C111.015 329.598 110.254 330.125 110.334 330.249Z" fill="#263238"/>
<path opacity="0.3" d="M109.99 320.557L110.129 323.624L126.556 323.302L126.548 320.543L109.99 320.557Z" fill="black"/>
<path d="M110.239 326.779C110.239 326.845 110.883 326.94 111.915 326.75C112.428 326.655 113.028 326.479 113.658 326.194C113.972 326.047 114.294 325.879 114.617 325.674C114.77 325.572 114.953 325.469 115.114 325.279C115.29 325.103 115.392 324.671 115.18 324.408C115.005 324.152 114.704 324.042 114.463 324.042C114.214 324.034 114.016 324.086 113.833 324.137C113.46 324.232 113.116 324.356 112.794 324.503C112.157 324.803 111.645 325.176 111.264 325.535C110.495 326.26 110.239 326.875 110.29 326.904C110.364 326.955 110.737 326.443 111.52 325.842C111.908 325.542 112.413 325.235 113.006 324.986C113.306 324.862 113.628 324.759 113.965 324.679C114.316 324.583 114.617 324.576 114.712 324.73C114.748 324.788 114.748 324.81 114.675 324.92C114.602 325.015 114.456 325.11 114.309 325.213C114.016 325.411 113.716 325.579 113.431 325.725C112.852 326.018 112.296 326.223 111.82 326.362C110.861 326.64 110.232 326.692 110.239 326.779Z" fill="#263238"/>
<path d="M110.451 327.006C110.51 327.028 110.825 326.443 110.876 325.389C110.898 324.862 110.839 324.232 110.627 323.559C110.525 323.222 110.378 322.885 110.188 322.549C109.99 322.219 109.749 321.78 109.112 321.714C108.782 321.707 108.512 321.963 108.416 322.19C108.307 322.417 108.285 322.614 108.248 322.805C108.19 323.193 108.204 323.581 108.255 323.932C108.365 324.642 108.665 325.228 108.987 325.652C109.646 326.509 110.334 326.699 110.349 326.648C110.4 326.567 109.829 326.252 109.324 325.425C109.075 325.015 108.848 324.481 108.775 323.859C108.739 323.551 108.739 323.222 108.797 322.893C108.848 322.534 108.973 322.248 109.112 322.285C109.28 322.278 109.566 322.548 109.705 322.827C109.88 323.127 110.02 323.427 110.129 323.727C110.342 324.327 110.444 324.906 110.473 325.396C110.532 326.369 110.364 326.984 110.451 327.006Z" fill="#263238"/>
<path d="M142.213 306.701L155.726 317.388C155.726 317.388 149.401 334.714 151.707 336.932L173.367 311.473L152.995 293.964L142.213 306.701Z" fill="url(#paint11_linear_136:766)"/>
<g opacity="0.6">
<path opacity="0.6" d="M161.318 308.575C161.874 308.194 162.716 308.326 163.119 308.867C163.521 309.402 163.397 310.266 162.848 310.654C162.299 311.042 161.281 310.917 160.945 310.339C160.608 309.761 160.813 308.758 161.435 308.516" fill="white"/>
</g>
<path opacity="0.6" d="M173.367 311.466L171.332 309.717L151.268 334.817C151.268 334.817 150.799 336.369 151.707 336.918L173.367 311.466Z" fill="white"/>
<path d="M155.242 317.688C155.367 317.791 155.953 317.22 156.875 316.941C157.79 316.649 158.595 316.788 158.646 316.634C158.719 316.502 157.819 316.048 156.714 316.4C155.601 316.736 155.111 317.615 155.242 317.688Z" fill="#263238"/>
<path d="M154.079 321.297C154.174 321.429 154.847 321.07 155.733 321.092C156.619 321.092 157.277 321.465 157.38 321.341C157.497 321.238 156.846 320.536 155.74 320.528C154.635 320.506 153.961 321.194 154.079 321.297Z" fill="#263238"/>
<path d="M155.982 325.528C156.106 325.44 155.63 324.737 154.679 324.474C153.727 324.21 152.959 324.562 153.017 324.708C153.061 324.862 153.749 324.796 154.525 325.023C155.316 325.235 155.865 325.645 155.982 325.528Z" fill="#263238"/>
<path d="M152.439 314.906C152.6 314.95 152.907 314.233 153.559 313.574C154.188 312.901 154.891 312.549 154.84 312.396C154.811 312.249 153.896 312.388 153.149 313.179C152.388 313.969 152.285 314.885 152.439 314.906Z" fill="#263238"/>
<path opacity="0.3" d="M144.892 308.809L147.3 310.719L157.826 298.107L155.733 296.299L144.892 308.809Z" fill="black"/>
<path d="M149.753 312.703C149.804 312.747 150.294 312.322 150.829 311.422C151.092 310.976 151.356 310.405 151.553 309.739C151.648 309.409 151.729 309.05 151.787 308.677C151.809 308.494 151.853 308.289 151.817 308.04C151.802 307.791 151.539 307.433 151.202 307.418C150.894 307.381 150.616 307.543 150.455 307.718C150.287 307.901 150.199 308.084 150.111 308.253C149.936 308.597 149.804 308.941 149.709 309.277C149.518 309.951 149.46 310.588 149.482 311.107C149.526 312.161 149.818 312.762 149.877 312.74C149.965 312.718 149.818 312.103 149.884 311.115C149.914 310.624 150.009 310.046 150.214 309.431C150.316 309.124 150.448 308.816 150.609 308.509C150.77 308.179 150.96 307.945 151.143 307.982C151.209 307.996 151.231 308.011 151.26 308.128C151.282 308.245 151.26 308.421 151.238 308.597C151.195 308.948 151.129 309.285 151.048 309.599C150.894 310.229 150.682 310.785 150.47 311.232C150.053 312.139 149.679 312.645 149.753 312.703Z" fill="#263238"/>
<path d="M150.067 312.696C150.126 312.666 149.892 312.044 149.123 311.312C148.742 310.954 148.223 310.58 147.578 310.302C147.256 310.163 146.905 310.046 146.532 309.965C146.151 309.9 145.661 309.797 145.199 310.229C144.972 310.47 144.994 310.851 145.104 311.063C145.207 311.298 145.338 311.437 145.463 311.59C145.719 311.891 146.019 312.132 146.319 312.322C146.927 312.703 147.571 312.864 148.098 312.901C149.181 312.967 149.774 312.571 149.738 312.527C149.709 312.432 149.101 312.659 148.142 312.505C147.674 312.425 147.117 312.242 146.598 311.891C146.341 311.715 146.092 311.495 145.88 311.239C145.646 310.968 145.514 310.683 145.624 310.602C145.726 310.47 146.114 310.434 146.422 310.514C146.759 310.58 147.081 310.675 147.381 310.785C147.974 311.019 148.479 311.32 148.867 311.62C149.635 312.213 149.987 312.747 150.067 312.696Z" fill="#263238"/>
<path d="M104.742 244.341C104.742 244.341 105.635 203.24 104.742 203.24C103.849 203.24 97.5097 199.624 97.5097 199.624L89.5894 260.709C89.5894 260.709 88.8794 267.568 97.3633 272.399C105.847 277.23 143.794 310.968 143.794 310.968L156.633 295.333C156.633 295.333 131.665 269.31 121.468 260.709C113.489 253.975 104.742 244.341 104.742 244.341Z" fill="#263238"/>
<path d="M127.998 234.76L128.861 228.252C128.861 228.252 135.113 215.098 136.013 209.462C136.906 203.825 136.313 191.711 136.313 191.711H96.8217C96.8217 191.711 96.99 236.297 101.755 248.799C101.755 248.799 104.178 272.736 104.53 274.741C105.284 279.002 107.919 322.585 107.919 322.585L127.829 321.86C127.829 321.86 129.557 281.791 128.173 270.415C127.492 264.786 127.163 258.784 127.017 253.814C126.834 247.452 127.163 241.084 127.998 234.76Z" fill="#263238"/>
<path d="M97.905 204.718C97.9123 204.718 97.9197 204.784 97.9343 204.916C97.9416 205.07 97.9563 205.26 97.9709 205.494C97.9929 206.029 98.0295 206.775 98.0734 207.712C98.1466 209.637 98.293 212.426 98.4906 215.867C98.8859 222.747 99.6252 232.241 100.709 242.702C101.792 253.162 102.963 262.619 103.805 269.456C104.222 272.853 104.559 275.62 104.793 277.56C104.903 278.497 104.983 279.229 105.049 279.763C105.071 279.997 105.093 280.187 105.108 280.341C105.115 280.473 105.123 280.539 105.115 280.539C105.108 280.539 105.093 280.473 105.071 280.348C105.049 280.195 105.013 280.012 104.976 279.778C104.896 279.243 104.786 278.511 104.654 277.582C104.391 275.642 104.01 272.889 103.541 269.493C102.626 262.656 101.419 253.206 100.335 242.738C99.2446 232.271 98.5492 222.769 98.2271 215.881C98.0661 212.434 97.9636 209.645 97.9343 207.719C97.9197 206.775 97.9123 206.036 97.8977 205.501C97.8977 205.267 97.8977 205.077 97.8977 204.923C97.8977 204.784 97.8977 204.718 97.905 204.718Z" fill="#455A64"/>
<path d="M126.987 257.488C127.002 257.488 127.039 257.708 127.104 258.132C127.17 258.594 127.251 259.208 127.361 259.992C127.558 261.609 127.807 263.959 128.034 266.873C128.503 272.692 128.861 280.751 128.993 289.652C129.096 298.561 128.956 306.627 128.642 312.454C128.495 315.368 128.305 317.725 128.151 319.35C128.063 320.133 127.99 320.755 127.939 321.216C127.888 321.641 127.851 321.868 127.844 321.868C127.829 321.868 127.836 321.641 127.866 321.209C127.902 320.748 127.946 320.126 128.005 319.335C128.115 317.71 128.261 315.353 128.378 312.44C128.627 306.613 128.722 298.553 128.62 289.652C128.488 280.759 128.173 272.707 127.778 266.887C127.588 263.981 127.383 261.624 127.229 260.006C127.148 259.223 127.09 258.601 127.046 258.14C126.987 257.715 126.973 257.488 126.987 257.488Z" fill="#455A64"/>
<path d="M134.754 108.804C134.754 108.804 141.217 110.532 142.594 120.158C143.97 129.791 141.422 132.543 141.422 132.543C141.422 132.543 142.469 114.609 134.439 112.164L134.754 109.156" fill="#263238"/>
<path d="M90.7167 140.258L57.3522 139.614L57.7401 141.232L90.5557 141.715L90.7167 140.258Z" fill="#263238"/>
<path d="M131.174 111.828C129.93 111.498 128.612 111.659 127.434 112.157C124.725 113.299 119.784 116.571 119.433 125.801C118.862 140.712 118.862 140.712 118.862 140.712L140.2 143.501C140.193 143.508 142.008 114.712 131.174 111.828Z" fill="url(#paint12_linear_136:766)"/>
<path d="M91.9026 143.421L118.957 151.553L119.36 140.661L135.559 143.018L134.659 160.733C134.468 165.93 130.83 170.358 125.765 171.544C122.932 172.21 119.953 171.778 117.427 170.344L88.6744 153.998L91.9026 143.421Z" fill="#FFBE9D"/>
<path d="M140.193 143.509C140.185 143.501 140.185 143.421 140.171 143.252C140.163 143.069 140.156 142.835 140.141 142.535C140.119 141.883 140.083 140.968 140.046 139.805C139.973 137.426 139.863 134.029 139.731 129.835C139.673 127.734 139.607 125.443 139.534 122.983C139.519 122.368 139.497 121.739 139.483 121.102C139.453 120.787 139.417 120.472 139.387 120.158C139.321 119.843 139.27 119.528 139.19 119.213C138.868 117.954 138.267 116.739 137.426 115.656C135.742 113.526 133.034 111.901 130.04 111.85C128.554 111.813 127.06 112.267 125.758 113.072C124.447 113.87 123.335 115.026 122.449 116.337C121.153 118.225 120.429 120.399 120.011 122.551C119.587 124.718 119.455 126.877 119.353 128.978C119.235 133.18 119.118 137.133 119.016 140.727L118.877 140.566C125.26 141.437 130.567 142.162 134.3 142.674C136.152 142.93 137.609 143.143 138.633 143.282C139.117 143.355 139.504 143.406 139.783 143.45C140.046 143.479 140.185 143.501 140.193 143.509C140.2 143.516 140.068 143.501 139.819 143.479C139.541 143.45 139.168 143.406 138.699 143.347C137.682 143.223 136.232 143.047 134.388 142.828C130.618 142.359 125.267 141.686 118.833 140.881L118.686 140.866V140.72C118.774 137.125 118.84 133.173 118.979 128.964C119.082 126.863 119.213 124.681 119.638 122.485C120.063 120.297 120.802 118.064 122.134 116.124C123.049 114.778 124.191 113.584 125.56 112.75C126.914 111.908 128.488 111.432 130.047 111.476C133.173 111.542 135.962 113.233 137.704 115.444C138.568 116.564 139.19 117.83 139.519 119.133C139.6 119.455 139.651 119.792 139.717 120.114C139.746 120.443 139.783 120.773 139.812 121.095C139.827 121.739 139.841 122.368 139.856 122.998C139.907 125.487 139.951 127.807 139.995 129.923C140.068 134.117 140.127 137.528 140.171 139.907C140.185 141.056 140.2 141.957 140.207 142.601C140.207 142.886 140.207 143.121 140.215 143.296C140.2 143.435 140.2 143.509 140.193 143.509Z" fill="#263238"/>
<path d="M92.4516 143.743L85.9514 138.933C84.7656 138.055 82.9209 138.238 81.4496 138.106C78.5363 137.843 73.7343 139.607 73.5513 139.907L75.5131 141.474L62.8788 141.086C62.8788 141.086 63.9621 143.721 67.4977 143.992C67.4977 143.992 67.9076 146.846 71.5749 147.388C71.5749 147.388 72.5265 149.694 74.5615 150.375C74.5615 150.375 74.9714 152.959 78.2288 152.82L89.2894 154.071L92.4516 143.743Z" fill="#FFBE9D"/>
<path d="M71.4174 144.417C73.621 144.547 75.4123 144.567 75.4185 144.462C75.4247 144.357 73.6433 144.167 71.4398 144.037C69.2362 143.908 67.4448 143.888 67.4387 143.992C67.4325 144.097 69.2138 144.288 71.4174 144.417Z" fill="#EB996E"/>
<path d="M75.1032 147.696C77.0356 147.696 78.6022 147.61 78.6022 147.505C78.6022 147.4 77.0356 147.315 75.1032 147.315C73.1708 147.315 71.6042 147.4 71.6042 147.505C71.6042 147.61 73.1708 147.696 75.1032 147.696Z" fill="#EB996E"/>
<path d="M78.5362 150.565C80.4686 150.565 82.0351 150.48 82.0351 150.375C82.0351 150.27 80.4686 150.184 78.5362 150.184C76.6038 150.184 75.0372 150.27 75.0372 150.375C75.0372 150.48 76.6038 150.565 78.5362 150.565Z" fill="#EB996E"/>
<path d="M120.743 157.087C120.648 157.124 120.07 155.953 119.543 154.43C119.016 152.907 118.745 151.626 118.84 151.605C118.943 151.575 119.374 152.798 119.901 154.306C120.421 155.814 120.846 157.043 120.743 157.087Z" fill="#EB996E"/>
<path d="M122.705 156.033C122.617 156.099 121.746 155.037 120.663 153.742C119.587 152.446 118.701 151.392 118.782 151.319C118.855 151.246 119.872 152.19 120.956 153.5C122.046 154.811 122.786 155.974 122.705 156.033Z" fill="#EB996E"/>
<defs>
<linearGradient id="paint0_linear_136:766" x1="321.288" y1="248.297" x2="321.288" y2="338.71" gradientUnits="userSpaceOnUse">
<stop stop-color="#FFBA5C"/>
<stop offset="1" stop-color="#FF9300"/>
</linearGradient>
<linearGradient id="paint1_linear_136:766" x1="277.336" y1="198.072" x2="277.336" y2="208.539" gradientUnits="userSpaceOnUse">
<stop stop-color="#FFBA5C"/>
<stop offset="1" stop-color="#FF9300"/>
</linearGradient>
<linearGradient id="paint2_linear_136:766" x1="195.363" y1="317.82" x2="195.363" y2="344.142" gradientUnits="userSpaceOnUse">
<stop stop-color="#FFBA5C"/>
<stop offset="1" stop-color="#FF9300"/>
</linearGradient>
<linearGradient id="paint3_linear_136:766" x1="288.518" y1="310.112" x2="288.518" y2="344.135" gradientUnits="userSpaceOnUse">
<stop stop-color="#FFBA5C"/>
<stop offset="1" stop-color="#FF9300"/>
</linearGradient>
<linearGradient id="paint4_linear_136:766" x1="262.169" y1="126.406" x2="262.169" y2="206.276" gradientUnits="userSpaceOnUse">
<stop stop-color="#FFBA5C"/>
<stop offset="1" stop-color="#FF9300"/>
</linearGradient>
<linearGradient id="paint5_linear_136:766" x1="252.322" y1="89.645" x2="252.322" y2="94.2254" gradientUnits="userSpaceOnUse">
<stop stop-color="#FFBA5C"/>
<stop offset="1" stop-color="#FF9300"/>
</linearGradient>
<linearGradient id="paint6_linear_136:766" x1="246.117" y1="128.846" x2="246.117" y2="204.923" gradientUnits="userSpaceOnUse">
<stop stop-color="#FFBA5C"/>
<stop offset="1" stop-color="#FF9300"/>
</linearGradient>
<linearGradient id="paint7_linear_136:766" x1="232.778" y1="132.646" x2="232.778" y2="188.109" gradientUnits="userSpaceOnUse">
<stop stop-color="#FFBA5C"/>
<stop offset="1" stop-color="#FF9300"/>
</linearGradient>
<linearGradient id="paint8_linear_136:766" x1="118.432" y1="106.016" x2="118.432" y2="194.745" gradientUnits="userSpaceOnUse">
<stop stop-color="#FFBA5C"/>
<stop offset="1" stop-color="#FF9300"/>
</linearGradient>
<linearGradient id="paint9_linear_136:766" x1="100.35" y1="107.077" x2="100.35" y2="136.665" gradientUnits="userSpaceOnUse">
<stop stop-color="#FFBA5C"/>
<stop offset="1" stop-color="#FF9300"/>
</linearGradient>
<linearGradient id="paint10_linear_136:766" x1="109.954" y1="316.934" x2="109.954" y2="344.142" gradientUnits="userSpaceOnUse">
<stop stop-color="#FFBA5C"/>
<stop offset="1" stop-color="#FF9300"/>
</linearGradient>
<linearGradient id="paint11_linear_136:766" x1="157.79" y1="293.964" x2="157.79" y2="336.932" gradientUnits="userSpaceOnUse">
<stop stop-color="#FFBA5C"/>
<stop offset="1" stop-color="#FF9300"/>
</linearGradient>
<linearGradient id="paint12_linear_136:766" x1="129.586" y1="111.655" x2="129.586" y2="143.501" gradientUnits="userSpaceOnUse">
<stop stop-color="#FFBA5C"/>
<stop offset="1" stop-color="#FF9300"/>
</linearGradient>
</defs>
</svg>
